<svg xmlns="http://www.w3.org/2000/svg" viewBox="0 0 673.94 669.34"><defs><style>.cls-1,.cls-5{fill:#fff;}.cls-2,.cls-5{fill-rule:evenodd;}.cls-3{stroke:#fff;stroke-width:3px;}.cls-3,.cls-4{stroke-miterlimit:10;}.cls-4{stroke:#231f20;stroke-width:2px;}</style></defs><title>Asset 1</title><g id="Layer_2" data-name="Layer 2"><g id="Layer_3" data-name="Layer 3"><circle class="cls-1" cx="336.97" cy="345.66" r="290.15"/><path class="cls-1" d="M298.78,325.13l6.3,4.69c5.15-15.91,6.49-33.78,29.17-35,1.7,6.39,3.51,13.25,5.34,20.12.43-.12.87-.22,1.31-.33-.67-4.56-1.34-9.1-1.9-12.92l53.29,23.16c3.82-4,6.54-6.92,11.49-12.14-18.6,2.37-33.67-.92-47.39-9.54-5.17-3.23-10.34-6.53-15.77-9.29-4.3-2.2-9.36-5.72-13.45-5-16.8,2.93-33.35,7.26-50,11.07.28,1.45.56,2.89.84,4.35,10.44.57,19.93-5.61,32.81-7-9,6-15.89,10.59-22.88,15.23,4.67,5.41,8,9.33,11.41,13.23-2.24.34-5.66-.11-6.5,1.15-3.59,5.42-6.42,11.35-10.05,18.06,5.53-4.61,10.48-8.19,14.67-12.53C298.9,331,298.4,327.63,298.78,325.13ZM191.3,384.89c0-.74-.06-1.46-.08-2.19q13.88-6,27.76-12c-.44-1.1-.87-2.22-1.32-3.33l-44.55,12.38c2.74-4.07,6.89-9,9.67-14.62,3.24-6.54.78-9.91-6.59-9.42-3.28.23-6.46,2.27-9.65,3.57s-6.31,2.67-9.47,4c-.34-.81-.67-1.63-1-2.43,7.77-3.7,15.54-7.38,22.44-10.68.83-2.89,1.54-5.37,1.87-6.47-6.4,0-13.33.08-20.27,0-8.07-.12-15.12,1.46-18.94,9.7-.84,1.81-2.46,3.26-5.13,6.68.78-5.28,1.21-8.11,1.63-10.94C127,362.48,110.1,370,105.27,388c-1.89,7.05-9.33,9.19-17.13,8.92q16-22.71,33.67-43.7c3.48-4.12,8.19-8.52,13.13-9.88,11.45-3.08,19.25-10.6,27.47-18.19,5.75-5.32,12.38-9.68,18.63-14.47l1.63,1.68-16.5,20.81h6.61v8.29L192.34,330c.39,4.42.62,7.15.83,9.54,3.44,0,6.58.76,9-.19,3.29-1.26,7.51-3.2,8.82-6,4-8.65,12.69-13.93,24.51-12.78-2.58,4.13-5.87,7.66-7.1,11.8s-.25,8.66-.25,13l2.17-.16c1.57-10.31,17.52-15.2,11.19-25.89l34.82-13.44c-.05-.81-.09-1.61-.14-2.42-2.52,0-5.1-.37-7.55.06-8.65,1.51-18,1.67-25.69,5.35-10.54,5.05-19.29,4.72-29-1.23-4-2.49-10-2.09-13.77-4.78-5-3.55-8.83-3.47-13.47-.2q-33.25,23.4-66.59,46.7c-2.88,2-5.44,4.61-8.53,6.18-25.79,13.16-60.33,37.36-50.06,34.56l.93,1.45c-2.9,3.52,23-13.43,38.52-25.66-2.18,13.1-7.88,22.66-19.36,28.23-5.56,2.7-11.21,6.11-15.48,10.51-3.82,5.21,3.08,22.5,10.41,22.5,1.76,0,3.76-1.53,5.22-2.83,8.44-7.49,16.75-15.12,25.1-22.71l1,.43-9.1,16.68c10.65-5.84,20.1-13.05,29.64-20.13,2.78-2.06,5.62-4.92,8.75-5.43,20.17-3.24,40.09-8.74,61-5,7.72,1.37,15.88.22,23.85.22,0-.63,0-1.25,0-1.87Zm-79,37.22c0,.48,0,1,0,1.44,3.9,0,7.9.57,11.67-.09,11.84-2.09,23.59-4.6,35.36-7,18.11-3.7,47.15,3.11,55.73,13.28,4.52-4,9-8.08,14-12.54l4.86,8.54c3.55-6.16,6.82-11.35,9.63-16.78,3.47-6.68,8.55-9.23,16.17-9.68,9.46-.58,18.81-3,28.21-4.68l-.24-1.69H274.49c-.27-4.86-.5-9.19-.82-14.94-6,4-13.66,4.85-8.6,12.05-8.86,3.92-17.63,8.08-26.6,11.71-18.43,7.47-37.95,6.5-57.26,6.53-3,0-6-2-9.07-3q-8.53-2.85-17.1-5.66c-.17.57-.35,1.16-.53,1.73l13.09,5.16Zm452-32.21c-.18-7.41,5.81-9.62,12.38-8.59a103.16,103.16,0,0,1,24.08,6.76c10.6,4.5,26.17-5.13,13-4.38-6.34.37-13.15-1.45-19.21-3.72-11.32-4.26-23.24-5.28-33.33,0-10.95,5.78-22,6.81-33.6,7.69-1.68.13-3.36.37-6.24.7l16.89,7.53L518.87,417.8l-8-6.08c1.58,4.44,2.52,7.09,3.49,9.85L507,429.41c2.79,0,4.16.08,5.53,0,4.64-.31,38.06-20.29,41.22-23.68s7.25-6,10.93-8.95c1,.72,1.92,1.46,2.87,2.17-2.74,7.68-5.47,15.36-7.88,22.11l20.45-19.25-6,.26C570.27,397.28,567.73,394.12,564.34,389.9ZM383,414.14c9.45-11.7,33.32-21.25,37.34-15.24-.82,1.68-1.74,3.54-2.93,6l7.07-3.05c-5.46,7.3-9.61,12.84-13.76,18.37l1.37,1c4-3.67,8-7.35,13.23-12.1-.4,5.33-.67,8.85-1.12,14.74,3.94-8.58,6.63-15,9.82-21.2,4.86-9.42,11.15-11.19,20.32-6.38,3.51,1.85,7.22,3.29,10.86,4.92q.45-1,.87-2c-5.36-2.74-11.56-4.58-15.9-8.47s-7-9.9-10.38-15c-.22.39-.76.85-.71,1.23,1.14,8.39-3.72,12.92-10.71,15.09s-12-1.37-16.3-7.21c-2.25-3.06-6.62-4.57-10-6.77l-2.33,2.36c2.47,3.61,5,7.22,7,10.14-5.38,2.14-10.45,3.8-15.17,6.14-8.56,4.21-16.9,8.85-25.33,13.3-.39-.62-.77-1.24-1.15-1.86h15.73C381.26,409.51,381.91,411.28,383,414.14Zm-95.86,13c18.09-.62,21.93-19.14,34.91-27.26-1.28-3.23-2.69-6.82-4.66-11.82C308.5,403.42,304.11,420.19,287.12,427.18Zm55.15-61.67,1.66-2.53L374,376.12c-5.84-4.92-9.78-8.37-13.86-11.62-2-1.62-4.92-4.56-6.44-4-9.85,3.36-14.5-4.8-23.21-10.12,4.82,9.43,8.58,16.82,12.35,24.19.79-.38,1.6-.75,2.39-1.15Zm-80.66-41.05c1.08,8.5,2.17,17.06,3.25,25.62l1.36,0c.22-4.46.45-8.9.73-14.33l7,3.14c.9-.93,1.8-1.87,2.69-2.82l-13.84-5.7,18.66-10.55c-.3-.42-.61-.84-.91-1.24C274.47,320.46,268.37,322.34,261.61,324.46ZM278,385.17l14.56-17.54C274.11,372.7,274.3,374.13,278,385.17Zm189.17-2.74H448.61C454.87,391.61,462.82,391.16,467.19,382.43Zm53.26-34.07c-4.45,10.69-2.5,18.29,5,21.81C523.86,363.23,522.16,355.85,520.45,348.36Zm-25.68,35.16L510.87,401C506.56,394.67,506.7,384.46,494.77,383.52Z"/><path class="cls-2" d="M191.3,384.89l30.81,1.52c0,.62,0,1.24,0,1.87-8,0-16.13,1.15-23.85-.22-20.89-3.7-40.81,1.8-61,5-3.13.51-6,3.37-8.75,5.43-9.54,7.08-19,14.29-29.64,20.13L108,402l-1-.43c-8.35,7.59-16.66,15.22-25.1,22.71-1.46,1.3-4.49,3.83-6.26,3.84-9.26,0-17.92-16.6-10.86-24.26,4.26-4.39,11.41-7.06,17-9.76,11.48-5.57,17.18-15.13,19.36-28.23C85.53,378.08,59,396.18,61.86,392.66c-.3-.48.06-2.12-.25-2.6.93,1.45-1.53,2.81-1.53,2.81-.17-.41-.9-6-1.07-6.43,1.28-.86-1.15-1.67.21-2.36,8.23-4.16-8.61,2.31-.38-1.85q26.43-13.32,52.83-26.73c3.09-1.57,5.65-4.16,8.53-6.18q33.28-23.37,66.59-46.7c2-1.4,3.1-2.21,4.06-2.41.13,0,1.53-2.29,1.65-2.29a6.86,6.86,0,0,1,.83,2.23,4.54,4.54,0,0,1,.66,0,13.17,13.17,0,0,1,6.27,2.63c3.8,2.69,9.73,2.29,13.77,4.78,9.67,5.95,18.42,6.28,29,1.23,7.67-3.68,17-3.84,25.69-5.35,2.45-.43,5-.06,7.55-.06,0,.81.09,1.61.14,2.42l-34.82,13.44c6.33,10.69-9.62,15.58-11.19,25.89l-2.17.16c0-4.36-.94-9,.25-13s4.52-7.67,7.1-11.8c-11.82-1.15-20.49,4.13-24.51,12.78-1.31,2.82-5.53,4.76-8.82,6-2.46.95-5.6.19-9,.19-.21-2.39-.44-5.12-.83-9.54l-19.56,11.5v-8.29h-6.61l16.5-20.81L181,310.68c-6.25,4.79-12.88,9.15-18.63,14.47-8.22,7.59-16,15.11-27.47,18.19-4.94,1.36-9.65,5.76-13.13,9.88q-17.7,21-33.67,43.7c7.8.27,15.24-1.87,17.13-8.92,4.83-18,21.68-25.52,32.38-38.84-.42,2.83-.85,5.66-1.63,10.94,2.67-3.42,4.29-4.87,5.13-6.68,3.82-8.24,10.87-9.82,18.94-9.7,6.94.11,13.87,0,20.27,0-.33,1.1-1,3.58-1.87,6.47-6.9,3.3-14.67,7-22.44,10.68.35.8.68,1.62,1,2.43,3.16-1.34,6.29-2.73,9.47-4s6.37-3.34,9.65-3.57c7.37-.49,9.83,2.88,6.59,9.42-2.78,5.63-6.93,10.55-9.67,14.62l44.55-12.38c.45,1.11.88,2.23,1.32,3.33q-13.89,6-27.76,12C191.24,383.43,191.27,384.15,191.3,384.89Z"/><path class="cls-2" d="M474.69,352.25l-6.22,12.11-16.75-8.7,3.31,7.57c-2.42-1.07-4.54-1.39-5.7-2.63-8.81-9.25-17.16-19-26.23-28-5.79-5.73-12.58-10.47-19.36-16,1.23-.22,3.34-1.2,5.08-.73,2.47.66,5.38,1.82,6.84,3.73,9.31,12,20.45,9.53,31.89,4.41,9.73-4.37,19.09-2.11,28.15,1.55C481.62,328,486,327,491,323.27c5.35-4,11.6-6.81,17.3-10.36,6.69-4.17,13.22-4.62,20.87-2,5,1.7,11,1.42,16.34.67,7-1,12.29,1,15.68,6.93,4.22,7.39,11,9.3,18.62,11.36,7.26,1.94,14.33,5.68,21,9.49,8.12,4.63,28.17,18.16,7.36,17.73,4.5,6.52,4.58,8.81,8.25,14.15-.35.38-1.14,1.65-1.5,2-2.72-2.9-6.29-6.21-9-9.12-3-3.19-5.24-6.59-8.35-9.65S591,364.57,587,354.31c-.68,2.33-1.35,4.67-2.31,8-3-6.73-6.15-12.23-12.2-3.75l-17.13-16c11,1.63,24.43,3.65,37.88,5.66.38-1.2.77-2.38,1.16-3.56l-15.72-6,2.5-3.6c-12-2-22.92-4.66-28.5-18.47L538,318.81l.14.17c-.66-1.07-1.27-3-2-3.05-1.91-.1-4.63,1.63-5.65.85-7.13-5.48-12.56-.17-18.46,2.36l-.88-.5c-3.47,1.13-7.53,1.47-10.3,3.54-6.44,4.86-12.25,10.54-18.55,16.07-1.88-12.21-11.79-9.85-19.12-11.9-7.83-2.2-11.52,2.7-16.15,9.35,4.59.94,8.67,3.07,11.53,2,3.16-1.18,5.23-5.28,8.33-8.76.36,5,.63,8.78,1,14.44,3.64-3.93,5.83-6.28,8-8.63l1.64.53q-1.55,8.6-3.1,17.19Z"/><path class="cls-2" d="M112.31,422.11l55.29-15.63-13.09-5.16c.18-.57.36-1.16.53-1.73q8.55,2.81,17.1,5.66c3,1,6.06,3,9.07,3,19.31,0,38.83.94,57.26-6.53,9-3.63,17.74-7.79,26.6-11.71-5.06-7.2,2.59-8,8.6-12.05.32,5.75.55,10.08.82,14.94H287.7l.24,1.69c-9.4,1.65-18.75,4.1-28.21,4.68-7.62.45-12.7,3-16.17,9.68-2.81,5.43-6.08,10.62-9.63,16.78l-4.86-8.54c-5,4.46-9.5,8.5-14,12.54-8.58-10.17-37.62-17-55.73-13.28-11.77,2.41-23.52,4.92-35.36,7-3.77.66-7.77.09-11.67.09C112.29,423.08,112.31,422.59,112.31,422.11Z"/><path class="cls-2" d="M564.34,389.9c3.39,4.22,5.93,7.38,9.78,12.15l6-.26L559.62,421c2.41-6.75,5.14-14.43,7.88-22.11-1-.71-1.9-1.45-2.87-2.17-3.68,2.95-7.76,5.52-10.93,8.95s-36.58,23.37-41.22,23.68c-1.37.1-2.74,0-5.53,0l7.41-7.84c-1-2.76-1.91-5.41-3.49-9.85l8,6.08,19.45-21.86-16.89-7.53c2.88-.33,4.56-.57,6.24-.7,11.57-.88,22.65-1.91,33.6-7.69,10.09-5.33,22-4.31,33.33,0a48.68,48.68,0,0,0,19.32,3.15c13.16-.75-2,10.34-12.63,5.84-7.63-3.24-16.38-6.36-24.57-7.65C570.15,380.28,564.16,382.49,564.34,389.9Z"/><path class="cls-2" d="M299.36,325.74c-3.38-3.9-6.74-7.82-11.41-13.23,7-4.64,13.87-9.22,22.88-15.23-12.88,1.4-22.37,7.58-32.81,7-.28-1.46-.56-2.9-.84-4.35,16.64-3.81,33.19-8.14,50-11.07,4.09-.72,9.15,2.8,13.45,5,5.43,2.76,10.6,6.06,15.77,9.29,13.72,8.62,28.79,11.91,47.39,9.54-4.95,5.22-7.67,8.09-11.49,12.14L339,301.68c.56,3.82,1.23,8.36,1.9,12.92-.44.11-.88.21-1.31.33-1.83-6.87-3.64-13.73-5.34-20.12-22.68,1.23-24,19.1-29.17,35l-6.3-4.69Z"/><path class="cls-2" d="M538,318.81c1.63,6.56-1.54,10-7.37,12.32-14.36,5.69-20.75,18.63-27.6,31.08-2.29,4.18-4.7,8.47-10.6,6.77-1.64-.46-3-2-5.88-4-2.24,1.67-6.05,4.48-11.81,8.75,0-8.1-6.22-2.68-6.22-9.36l6-11.89c10.63,2.33,13.56-8.79,21.33-13.52v6.58c3.24-3.49,4.82-7.44,6.76-11.2,2.71-5.31,5.7-10.47,8.57-15.69l.88.5,14.16-1.54c-3,3.32-5.23,5.68-7,7.64l7.6,1.88c3.65-2.6,7.51-5.37,11.38-8.14Z"/><path class="cls-2" d="M383,414.14c-1.07-2.86-1.72-4.63-2.24-6.05H365c.38.62.76,1.24,1.15,1.86,8.43-4.45,16.77-9.09,25.33-13.3,4.72-2.34,9.79-4,15.17-6.14-2-2.92-4.5-6.53-7-10.14L402,378c3.41,2.2,7.78,3.71,10,6.77,4.29,5.84,9.2,9.43,16.3,7.21s11.85-6.7,10.71-15.09c-.05-.38.49-.84.71-1.23,3.38,5.08,6,11,10.38,15s10.54,5.73,15.9,8.47q-.42,1-.87,2c-3.64-1.63-7.35-3.07-10.86-4.92-9.17-4.81-15.46-3-20.32,6.38-3.19,6.18-5.88,12.62-9.82,21.2.45-5.89.72-9.41,1.12-14.74-5.21,4.75-9.22,8.43-13.23,12.1l-1.37-1c4.15-5.53,8.3-11.07,13.76-18.37l-7.07,3.05c1.19-2.41,2.11-4.27,2.93-6C416.3,392.89,392.43,402.44,383,414.14Z"/><path class="cls-2" d="M287.12,427.18c17-7,21.38-23.76,30.25-39.08,2,5,3.38,8.59,4.66,11.82C309.05,408,305.21,426.56,287.12,427.18Z"/><path class="cls-2" d="M342.27,365.51l3,7.87c-.79.4-1.6.77-2.39,1.15-3.77-7.37-7.53-14.76-12.35-24.19,8.71,5.32,13.36,13.48,23.21,10.12,1.52-.52,4.41,2.42,6.44,4,4.08,3.25,8,6.7,13.86,11.62L343.93,363Z"/><path class="cls-2" d="M261.61,324.46c6.76-2.12,12.86-4,18.95-5.91.3.4.61.82.91,1.24l-18.66,10.55,13.84,5.7c-.89.95-1.79,1.89-2.69,2.82l-7-3.14c-.28,5.43-.51,9.87-.73,14.33l-1.36,0C263.78,341.52,262.69,333,261.61,324.46Z"/><path class="cls-2" d="M278,385.17c-3.72-11-3.91-12.47,14.56-17.54Z"/><path class="cls-2" d="M299.36,325.74l-.58-.61c-.38,2.5.12,5.82-1.3,7.29-4.19,4.34-9.14,7.92-14.67,12.53,3.63-6.71,6.46-12.64,10.05-18.06C293.7,325.63,297.12,326.08,299.36,325.74Z"/><path class="cls-2" d="M467.19,382.43c-4.37,8.73-12.32,9.18-18.58,0Z"/><path class="cls-2" d="M520.45,348.36c1.71,7.49,3.41,14.87,5,21.81C518,366.65,516,359.05,520.45,348.36Z"/><path class="cls-2" d="M494.77,383.52c11.93.94,11.79,11.15,16.1,17.46Z"/><path class="cls-1" d="M155.77,573.91c8.6,4.74,17,11,25.48,15.46,10,5.26,23.27,3.9,33.39,9,7.1,3.57,11.94,8.51,18.3,13.38,16.52,12.65,37.77,16.6,57.83,20.43,15.38,2.93,92.9,1.7,88.45-16.78-12.77-7.2-33.11-3.64-48.35-3.64-19.81,0-34.15-1.87-52.91-7.74-8.44-2.64-17.28-3.57-26-5-10.72-1.75-8.55-.81-18-7.91-6.82-5.11-14.79-9-20.81-12.59-4.29-2.56-8.25-2.27-10.44-7.83-15.23-4.78-50.14-23.34-43.43,7.81"/><path class="cls-1" d="M576.41,505.6s26.37-4,31-13.19,32.1-133.6,32.1-133.6V275.75L617.1,228.34,603,194.93l-14.88,5.62.79,14,27.61,83.34v43.19l-4.06,48-17.5,50Z"/><path class="cls-1" d="M546.92,127.72s-40.67-48.07-52.5-52.66-98.53-36.7-98.53-36.7l-69.64-4.58-59.9,19.49-4.8,16.06S306.11,59,330.14,59s73.53,2.29,88.91,8,53.23,23,67,33.29,52.27,34.91,52.27,34.91Z"/><path class="cls-3" d="M68.63,348.17C62,201.9,176.8,72.52,323.34,65.22h0l1.12-.07c148.26-6.86,274,107.62,280.85,257.15C612,468.58,497.13,598,350.61,605.27l-1.14.07C201.22,612.19,75.46,497.72,68.63,348.17Zm284,314.14c3.7-.1,8.43-.66,12,1.94,4.43,3.24,9.11,2.84,13.85,2.39a5,5,0,0,0,3.55-3.15c.43-2.57,1.74-3.35,3.94-3.69,3.42-.51,6.94-1.62,9.12,2.49a2.25,2.25,0,0,0,1.72,1.08,130.48,130.48,0,0,0,13.9-2.79c1.06-.3,1.45-2.73,2.35-4,.53-.79,1.42-1.81,2.19-1.85,4.17-.24,8.68-1.21,12.46,0,5,1.55,8.61-1,12.75-2a2,2,0,0,0,.94-1.7c-.66-3.57,1.33-5.1,4.37-5.57,2.74-.43,6.16-1.56,8.17-.42,3,1.68,5.08,1.14,7.59,0,2.36-1.08,4.64-2.37,7-3.26s3.58-1.85,3.4-4.65a4.29,4.29,0,0,1,2.53-3.32c3.53-.76,7.28-.51,10.77-1.37a41.86,41.86,0,0,0,10.53-4.18c1-.55.76-3.23,1.16-4.91a3.49,3.49,0,0,1,.76-1.45,10.79,10.79,0,0,1,11.62-2.5,4.1,4.1,0,0,0,3.14-.22c3.78-2.37,7.47-4.89,11.07-7.51a3.61,3.61,0,0,0,1-2.56c.07-4.22,5.21-9.07,9.54-8.34,6.25,1,9.63-3.38,13.66-6.6.42-.33.47-1.3.43-2-.26-4.87,5.38-9.71,10.32-8.79,2.61.48,13.46-10.21,13-12.86-.74-4.56,4.68-11.25,9.54-10.86,4,.32,5.72-2.13,7.76-4.4s4.91-4.42,2.13-8.11c-.37-.5.13-2.05.67-2.76,2.33-3.09,4-7.4,9.3-5.73a1.81,1.81,0,0,0,1.53-.53q4.54-6.57,8.94-13.22a1.29,1.29,0,0,0,0-1.21c-2.24-2.38-1.78-4.71.23-6.84,1.83-1.94,3.62-4.89,5.83-5.31,5.82-1.12,6.89-5.92,9.07-9.89.44-.8,0-2.46-.61-3.41-1.94-3.21,1.17-11.25,4.86-11.1,4,.17,4.88-2.24,6.1-4.8,1.32-2.72,2.66-5.44,3.74-8.26a4.9,4.9,0,0,0,.14-3.58c-2.4-4.59-2.17-7.18,2.06-10.25s7.93-6.66,8.81-12.12a5.84,5.84,0,0,0-.87-4.15c-3.06-3.69-.76-11.81,3.8-13.55a6.67,6.67,0,0,0,3.58-3.38,55.13,55.13,0,0,0,2.3-9.63,7,7,0,0,0-.43-4.16c-2.79-5.22-2.39-10.56,2.16-13.66,5-3.37,4-8.47,4.81-13.09.11-.69-.74-1.77-1.41-2.34a6.94,6.94,0,0,1,1.28-11.55,6.57,6.57,0,0,0,2.88-3.73,26.75,26.75,0,0,0,1-8.95c-.22-2.27-1.85-4.41-2.86-6.61-.4-.86-1.3-1.81-1.16-2.56.73-3.89.51-9,2.9-11.33,3.94-3.87,2.47-7.79,2.48-11.79,0-1.15-1.2-3.09-2.13-3.29-2.93-.6-3.2-2.53-3.16-4.79.08-3.74-2.18-8.18,3.05-10.46.33-.14.56-.66.71-1.05,1.37-3.47-2.23-14.63-5.17-16.91a10.76,10.76,0,0,1-2.74-3.89c-1.82-3.87.51-7.14,2-10.38,1.2-2.67.09-12.91-2.13-13-6.66-.33-5.4-5.59-6.44-9.35-.35-1.28,0-3.73.81-4.22,3.28-1.9,2.52-4.49,1.87-7.15-.57-2.37-1.36-4.69-2-7.05-.78-2.78-1.78-5.17-5.42-5a2.78,2.78,0,0,1-2.22-1.54c-.55-3.39-2.09-7.44-.86-10.16,2.54-5.63-1-9.24-2.72-13.52-.23-.56-1.37-.95-2.14-1-5.78-.74-8.63-6.37-5.84-11.41a4.69,4.69,0,0,0,.55-3.49,102.46,102.46,0,0,0-5.56-11.21c-.56-1-2.34-1.18-3.48-1.89-1.78-1.1-4-2-5.1-3.58-1.71-2.5-2.64-5.55-4-8.61,2.78-2.27,2.14-4.93.14-7.7-.91-1.27-1.39-3-2.52-4s-2.77-1.27-4.21-1.82-3.62-.67-4.56-1.76c-1.76-2.06-3.89-4.23-2.26-7.7a7.17,7.17,0,0,0-.38-5.28c-.86-1.92-2.52-3.48-3.94-5.12-2.22-2.55-3.69-6.51-8.48-4.31-.57.26-2.36-.77-2.74-1.6-1.86-4-7.82-6.37-4.83-12.29.21-.4-.33-1.37-.76-1.88a81.88,81.88,0,0,0-5.78-6.42,3.73,3.73,0,0,0-3-.79,8.09,8.09,0,0,1-9.86-9.37,5.12,5.12,0,0,0-1-3.71,27.26,27.26,0,0,0-4.37-4.14c-3-2.5-5.37-7-10.41-3.48-.26.18-.84,0-1.24-.11-2.75-.74-8.33-7.74-8.61-10.78-.45-4.71-7.94-8.76-12.33-7.53-2.12.59-5.14-.71-7.25-2-1.25-.76-1.54-3.12-2.23-4.78s-.78-3.61-1.89-4.52C515,51.48,512,50,509.19,48.23c-2.09-1.32-4-1.91-6.15.14a3.7,3.7,0,0,1-3.42.56c-3.85-2.28-7.79-4.6-9.66-9-1.66-3.92-9.06-7.06-12.74-5.32-4.4,2.08-11.39-1.35-12.86-6.09a6.2,6.2,0,0,0-2.69-3.41,57,57,0,0,0-8.8-3.54,6.28,6.28,0,0,0-4.13.06,11.42,11.42,0,0,1-14.88-4.47c-2.31-3.63-9.65-5.2-13.19-2.81-2.07,1.38-12.25.54-13-1.57-2.46-6.94-8.73-4.64-13.44-6-1-.29-2.57.35-3.61,1-4.09,2.6-12.88,1.69-16.42-1.85C371,2.72,364.24,2.6,361,5.72c-2.91,2.81-9.88,3.84-11.71.74-2.84-4.82-7-3.5-10.75-3.8A10,10,0,0,0,332.23,5c-2.14,1.73-6.8-3.7-11-3.5-6.12.35-8.41,7.32-12,4.73-4.43-3.24-9.11-2.84-13.85-2.4A5,5,0,0,0,291.91,7c-.44,2.58-1.76,3.35-4,3.7-3.42.52-6.93,1.62-9.11-2.51a2.25,2.25,0,0,0-1.74-1.07A135.46,135.46,0,0,0,263.22,9.9c-1.06.31-1.45,2.73-2.35,4-.53.78-1.42,1.81-2.19,1.85-4.17.24-8.68,1.2-12.47,0-5-1.56-8.59,1-12.74,2a2,2,0,0,0-.94,1.69c.66,3.58-1.33,5.1-4.37,5.57-2.75.43-6.16,1.56-8.17.42-3-1.68-5.08-1.13-7.59,0s-4.64,2.37-7.06,3.27-3.57,1.83-3.38,4.63a4.3,4.3,0,0,1-2.54,3.33c-3.53.75-7.28.5-10.77,1.36a42.78,42.78,0,0,0-10.53,4.18c-1,.55-.76,3.22-1.16,4.91a3.68,3.68,0,0,1-.76,1.45,10.78,10.78,0,0,1-11.61,2.52,4,4,0,0,0-3.15.21c-3.78,2.36-7.47,4.88-11.07,7.52a3.55,3.55,0,0,0-1.05,2.56c-.07,4.22-5.21,9-9.54,8.33-6.24-1-9.63,3.38-13.67,6.6-.41.32-.45,1.3-.43,2,.27,4.88-5.36,9.72-10.3,8.79-2.62-.48-13.46,10.21-13,12.86.74,4.56-4.68,11.26-9.54,10.87-4-.33-5.71,2.12-7.75,4.4s-4.92,4.4-2.14,8.11c.38.5-.12,2-.67,2.76-2.33,3.08-4,7.4-9.3,5.74a1.71,1.71,0,0,0-1.52.52c-3,4.37-6,8.78-9,13.21a1.29,1.29,0,0,0,0,1.21c2.26,2.38,1.8,4.71-.22,6.85-1.83,1.95-3.62,4.89-5.83,5.31-5.81,1.12-6.89,5.92-9.06,9.88-.45.81,0,2.46.6,3.42,1.93,3.2-1.17,11.24-4.86,11.08-4-.16-4.88,2.25-6.11,4.81-1.31,2.72-2.64,5.45-3.73,8.27a4.84,4.84,0,0,0-.13,3.58c2.4,4.58,2.15,7.18-2.07,10.26s-7.92,6.65-8.81,12.11a5.8,5.8,0,0,0,.87,4.15c3.06,3.69.77,11.81-3.79,13.54a6.61,6.61,0,0,0-3.58,3.39,54.37,54.37,0,0,0-2.31,9.62,7,7,0,0,0,.44,4.16c2.78,5.23,2.37,10.57-2.18,13.66-5,3.38-4,8.47-4.8,13.09-.12.7.75,1.77,1.41,2.35A6.93,6.93,0,0,1,7,297.93a6.62,6.62,0,0,0-2.88,3.74,27,27,0,0,0-1,8.94C3.34,312.88,5,315,6,317.23c.39.85,1.28,1.8,1.15,2.56-.73,3.88-.51,9-2.9,11.33C.3,335,1.76,338.9,1.76,342.9c0,1.15,1.2,3.1,2.13,3.28,2.94.62,3.19,2.55,3.15,4.79-.06,3.76,2.19,8.2-3,10.47-.32.14-.55.67-.71,1.05C1.91,366,5.53,377.11,8.45,379.41a10.35,10.35,0,0,1,2.75,3.9c1.82,3.86-.51,7.13-2,10.37-1.21,2.67-.09,12.89,2.12,13,6.65.31,5.41,5.59,6.44,9.34.35,1.29,0,3.74-.81,4.22-3.28,1.91-2.53,4.5-1.87,7.15.57,2.37,1.37,4.69,2,7,.78,2.79,1.78,5.18,5.42,5a2.76,2.76,0,0,1,2.22,1.53c.55,3.41,2.11,7.44.86,10.17-2.54,5.64,1,9.24,2.73,13.53.22.55,1.37.94,2.13,1a7.52,7.52,0,0,1,5.85,11.41,4.66,4.66,0,0,0-.56,3.49,100.71,100.71,0,0,0,5.56,11.21c.56,1,2.35,1.18,3.48,1.89,1.78,1.09,4,2,5.1,3.58,1.72,2.5,2.64,5.56,4,8.61-2.79,2.27-2.16,4.93-.15,7.7.92,1.28,1.4,3,2.53,4s2.77,1.28,4.2,1.82,3.63.67,4.56,1.76c1.77,2.07,3.9,4.23,2.27,7.71-.67,1.42-.33,3.74.37,5.27.87,1.91,2.53,3.48,3.94,5.12,2.21,2.54,3.7,6.51,8.48,4.31.58-.26,2.36.78,2.75,1.6,1.85,4,7.81,6.38,4.82,12.29-.21.4.34,1.37.77,1.88a86,86,0,0,0,5.77,6.42,3.74,3.74,0,0,0,3,.79,8.09,8.09,0,0,1,9.86,9.37,5.12,5.12,0,0,0,1,3.71,27.39,27.39,0,0,0,4.38,4.15c3,2.5,5.36,7,10.4,3.47.26-.18.84,0,1.25.11,2.74.74,8.32,7.74,8.61,10.78.45,4.71,7.94,8.76,12.33,7.53,2.11-.59,5.13.7,7.24,2,1.25.77,1.54,3.13,2.24,4.79s.77,3.61,1.88,4.52c2.55,2.07,5.56,3.57,8.36,5.33,2.1,1.31,4,1.9,6.16-.14a3.73,3.73,0,0,1,3.43-.56c3.84,2.28,7.77,4.6,9.66,9,1.65,3.92,9,7.06,12.72,5.32,4.42-2.08,11.41,1.35,12.87,6.09a6.32,6.32,0,0,0,2.7,3.42,54,54,0,0,0,8.8,3.52,6.22,6.22,0,0,0,4.13,0,11.42,11.42,0,0,1,14.88,4.48c2.3,3.63,9.63,5.19,13.18,2.81,2.08-1.39,12.25-.55,13,1.57,2.46,6.93,8.73,4.64,13.44,6,1,.3,2.58-.36,3.61-1,4.1-2.59,12.89-1.7,16.43,1.85,3.22,3.21,10,3.33,13.18.22,2.9-2.82,9.87-3.85,11.71-.74,2.83,4.81,7,3.49,10.75,3.79a10,10,0,0,0,6.33-2.35C343.85,663.76,348.5,662.51,352.66,662.31Zm-.5-41.71c-23.18,2.34-46.23,2.32-69.18-2.51-16.35-3.44-32.76-6.69-48.19-13.29-22.17-9.49-43.19-21.23-63.62-34-1-.89-1.84-1.87-2.78-2.76l.67-1.17a48.06,48.06,0,0,1,4.89,2.39c20.88,13.1,42.26,25.11,65,34.84,15.41,6.61,31.83,9.85,48.18,13.29,22.95,4.83,46,4.85,69.19,2.5,5.28-.53,10.63-.6,15.93-1.15,3.83-.4,7.63-.92,11.42-1.52-5.14.93-10.33,1.69-15.57,2.22S357.46,620.06,352.16,620.6Zm274-298.3c-.2-8.12-2-16.26-3.48-24.3-2.4-12.55-4.77-25.14-8-37.51-2.63-10.06-5.15-20.17-10-29.65-3-5.91-3.76-13-5.52-19.55l1.86-.56c1.56,3.37,3,6.78,4.59,10.16a42.23,42.23,0,0,0,3.28,9.73c4.86,9.49,7.38,19.6,10,29.66,3.23,12.36,5.6,25,8,37.51,1.1,5.78,2.31,11.62,3,17.47.23,3.23.38,6.46.43,9.68A303.6,303.6,0,0,1,628,367.57c-1.4,11-3.22,21.93-5.52,32.77-3.11,10.3-6.53,20.53-10.16,30.66-5.42,15.16-11.68,30-17.77,44.92-.14.36-.31.71-.46,1.06-1.18,1.93-2.41,3.83-3.74,5.68-2.15,3-2.77,7.09-7.14,8.6,2.39-5,5-10,7.14-15.13,6.08-14.91,12.36-29.77,17.78-44.92S618.49,401,622.6,385.54c2-7.67,4.08-27.24,4.48-35.28ZM321.38,47.3A291.58,291.58,0,0,0,289.24,51a255,255,0,0,1,50.6-4.83c5.33.09,10.64.65,16,.74,23.3.41,46.18,3.14,68.4,10.65C440,62.86,456,68,470.49,76.4c20.9,12,40.39,26.17,59.17,41.27.84,1,1.61,2.08,2.44,3.08-.27.35-.54.71-.8,1.07a47,47,0,0,1-4.58-2.94c-19.18-15.48-39.06-30-60.43-42.27C451.76,68.23,435.84,63.08,420,57.72c-22.23-7.5-45.11-10.24-68.4-10.65-5.32-.09-10.64-.65-16-.73C330.89,46.27,326.1,47.06,321.38,47.3Z"/><path class="cls-4" d="M131.67,465.48c-3-5.7-5.89-6.74-11.51-3.72-6.71,3.6-13.3,7.45-20.43,11.45.25,3.71.53,8,.83,12.63,9.3-3.92,18-7.4,26.49-11.23C131.81,472.46,133.42,468.76,131.67,465.48Z"/><path class="cls-1" d="M508.92,605.23C433,516.08,460,434,323.55,434c-33.56-2.88-33.11-26-55.66-11-12.54,8.36-38.53-32.07-49.75-13.84-17.95,29.14-31.42,48.28-31.42-14.95-2.76-9.58-8.82-31.52,7.95-53.78,13.17-17.46,47.72-32.67,59.65-58.78,11.8-25.83,22.5-54.41,33.32-81.07,1.81-4.43-29.45-6-27.63-10.34,1.58-3.75,33.23-13.09,34.83-16.71,1.68-3.8,6.35-4.63,8.06-8.25s3.31-6.9,5-10.21c1.21-2.39-13.67-1.81-12.44-4.09,1.39-2.56,18.89-8,20.31-10.36,14.28-24.23,50.83-35,50.17-40.28-1.15.88-2.17,2.22-3.48,2.6-16.47,4.63-29.24,14.4-40.69,26.93-4.74,5.19-12.5,7.53-18.59,11.62A149.62,149.62,0,0,0,289,152.69c-.85.73-1.29,3.41-.75,3.92a7,7,0,0,0,4.52,1.42c3,0,6-.54,9-.87.1.51.2,1,.29,1.51-4.7,3.67-9.39,7.33-14.69,11.45-2.29-11.55-5.63-20.81-13.9-28.21-6.54-5.84-11.66-8.84-21.78-7.81-26.44,2.71-38.28,26.37-31.78,47.12,5.06,16.11,15.84,26.92,33.83,28.33-1.34,4-2.54,7.74-3.81,11.44-3,8.81-3.38,18.76-10.75,25.69-3,2.8-4.11,5-1.05,8.91,1.49,1.89,1.29,5.75.73,8.5a102.61,102.61,0,0,1-4.27,13.79c-1.49,4.18-3.61,7.47-8.44,9.09-11.26,3.79-15.81,13.1-16.3,24-.38,8.57-4.29,14.37-10.29,19.65a205.52,205.52,0,0,0-15.79,15c-4.5,4.87-4.15,5.73.44,10.56-6.29,13.64-5,17.79-1.38,24.65,4.14-2.09,6.37-4,10.88-6.29-.11-1.93-.22-4.05-.35-6.32l-6.53-.9c2.06-4.32,4-8.2,5.76-12.12.8-1.79,2.43-4.08,1.9-5.44-2.13-5.4,1.53-7.46,4.79-10.08,2.74-2.21,5.07-5,7.9-7,1.59-1.16,4-2.19,5.78-1.93,8.71,1.28,17.38,2.84,20.78,13,.89,2.65,2.71,5,4,7.5,10.09,18.78,28.11,21.22,42.84,5.75,2.72-2.84,5.33-5.8,8-8.67,17.12,11.26,27.07,4.37,36.48-4.65,12.25-11.75,12.77-25.6,2.4-42.54,14.1,6,25,1.58,34-9.19l-4.44,1.74c4.48-5.66,8.62-10.95,12.85-16.16,1.09-1.34,2.27-3.07,3.75-3.55,7.76-2.51,7.83-7.7,5.47-14a14.06,14.06,0,0,1-1.26-5.06c.46-15.74-3.38-30.17-12.95-43.45,7.1,3.18,13.92,5.14,21.07-.19-1-.39-1.69-.71-2.42-.95-16.51-5.59-33.61-5.45-50.74-5.38a89.59,89.59,0,0,1-17.63-1.5,11.83,11.83,0,0,1-6.93-5.17c-.6-.95,2.1-4.2,3.64-6.13a33.68,33.68,0,0,1,4.45-3.94l-.91-1.52-11.9,5.87v-7.59c-2.91,4.92-4.55,11.35-8.14,12.77-4.15,1.64-10.07-1-15.17-2-6-1.21-11.86-2.71-17.79-4.09l.18-1.54,30.06-13.77c.31,2.42.63,4.83.72,5.44l33-13.83c-8.9-2.44-17.49,1.44-26.18,4.84-.39-.43-.8-.86-1.21-1.29l18.18-19.91c-5.77-.67-10.15-1.2-16-1.88,13.37-8.34,26.17-6.31,39.34-4.4l-3.07-7.59c11-.33,23.53,9.94,28.1,23.09,7-5.57,13.64-12.37,24.11-7.94-5.11-7.26-11.78-4.22-19.69-3.35,2.81-2,4.05-3.34,5.58-3.83,12.55-4.12,36.52,7.34,41.15,19.92.84,2.26.63,6.3-.83,7.68-2,1.87-5.63,2-8.57,2.79-.18-.61-.35-1.22-.53-1.82l4.43-3.57-7.8-8.88-.91.76,2.45,4.32-9.34,20.81c11.43,3.9,10.76,14.49,13.65,20.56,6-7.18,11.94-14.56,18.18-21.71,1.11-1.28,3.27-1.84,5.07-2.26,3.54-.82,7.37-.73,10.68-2.06,10.19-4.09,20.41-5.41,31-2.09.58.18,1,.77,1.68,1.29-1,1.36-1.92,2.63-3,4.09,2.66,1.67,4.93,3,7.13,4.47,12.72,8.42,14.57,20.29,4.8,32.06-7,8.49-15.64,14.87-26.38,18-17.36,5.09-33.1,2.35-42.26-13.41-.36-.62-1.25-.93-2.28-1.66a51.47,51.47,0,0,0-1.13,7q-.78,41-1.34,82.05a13.39,13.39,0,0,0,1.77,6.83c5.16,8.37,19.8,16.81,24.57,24.15.2,12.26,2,21.1-.4,33.64l-11.41-4.13c8.2,23.71,1.41,34-10.37,38.42-.66-6.51-1.1-13-2.05-19.5-3.07-20.59-13.08-37.08-30-49.22-5.23-3.75-10.84-3.82-18.25.34,14.67-1.25,24,4.47,29.66,15.6,4.85,9.52,9.51,19.27,12.89,29.37,1.68,5.07.29,11.15.29,16.78a22.23,22.23,0,0,1-5.08-9.34c-2.39-8.4-4-17.07-7-25.25-5.42-14.9-20.93-22.27-36.36-18.49-12.52,3.05-21.34,11.63-30.91,19.32-10.56,8.47-21.12,17.07-32.46,24.43-8.87,5.76-18.29,4.63-26.39-2.92a24,24,0,0,0-3.67-2.32c.87,3.36,2.77,5.4,4.53,7.57,1.89,2.35,3.63,4.8,5.48,7.27-10.35,5.64-21.85,7-32.08,3.26-21.23-7.85-30.32-25.23-34.55-46.1-1.33,2.33-1.93,5-3.55,6-10.58,6.18-21.25,12.27-32.22,17.7-2.35,1.16-6.82.6-9-1-7.66-5.48-14.59-12-22.1-17.66-5.22-4-10.62-7.94-16.52-10.64-6.87-3.13-13.53-.88-17.15,5.69-8.64,15.69-11.27,34.56,4.07,48.35q32.69,29.37,67.4,56.45c15.38,12,29.28,8.21,39-8.54,1.32-2.28,2.31-4.74,3.43-7.14,2.82-6.18,1.1-11.06-4.14-15.09a36.84,36.84,0,0,1-6.29-5.79c-.87-1.07-.63-3-.9-4.59,1.73-.12,3.8-.89,5.15-.22,13.59,6.74,26.77,14.37,40.64,20.44,12.84,5.62,13.62,14,12.9,25.07-.25,3.86-2.24,7.56-3,11.41-.71,3.65-.83,7.41-1.22,11.11-4.16,5.47-10.07,10.42-15.76,15.59-1.14,1-2.22,3.06-2,4.38.18,1,2.47,1.89,4,2.24,14.39,3.36,26.46-2.86,38.69-9.13,10.11-5.18,16.59-16.77,29.62-16.75.53,0,1-.84,1.57-1.18,9.08-5.28,12.63-14.35,15.69-23.56,1.49-4.44,3.8-6.79,8.53-7.85a165.27,165.27,0,0,0,21.27-6.54c2.08-.78,3.43-3.49,5.54-5.77,6.38,9.08,13.61,18.8,20.07,29,1.83,2.89,2,7.17,2,10.81,0,5.24-1.49,10.53-1,15.68.42,4.38-.73,6.19-4.61,8-8.76,4-18.22,7.36-25.64,13.21-21.76,17.18-23.31,37.64,4.77,50.9.21.09.43.15.62.25,21.43,11.28,43,22.31,64.23,34a72.15,72.15,0,0,0,32.06,8.86C480.16,618,494.53,603.58,508.92,605.23ZM422.83,228.6c2.19,1.48,3,2.41,3.88,2.57a61.2,61.2,0,0,0,36.44-5.31c7.12-3.33,9.62-11.37,7.38-18.56-.67-2.16-1.62-4.22-2.79-7.23l9.95,5.11c.36-.66.72-1.31,1.07-2-4.6-2.54-8.94-6.06-13.88-7.41-14.85-4.08-35.65,6.83-42.86,22l20.08,5.92c0,.69,0,1.39,0,2.09Z"/><path class="cls-2" d="M381.3,98.21c9.68,6.42,12.09,8.34,5.29,15.55-8,8.48-16.17,16.76-24.55,25.42,2.23,2.48,1.86,1.25,2.88,2.38,4.69-2.15,8.87-3.92,12.93-5.94s8.24-4.17,12.17-6.57c19.48-11.93,40.33-19.25,63.44-18.4a48.15,48.15,0,0,1,16,2.91c4.86,1.94,6.54,8.33,6.77,10.25s-2.28,5.08-4.39,6.21c-10.42,5.61-21.13,10.72-31.7,16.07-2.15,1.09-4.07,2.64-6.22,3.72-7.17,3.56-8.68,7.93-8.08,16.08.83,11.51-3.92,16.21-15.74,16.8,1.4,2.66,1.61,1.86,3.21,4.87,7-5.07,11.35-10.94,18-15.55,4-2.77,8.8-6.15,14.36-1.18.79.71,3.24-.35,4.9-.72,12.13-2.74,23.94-2.38,35.06,3.81,4,2.22,10.95,8.17,5.17,11.7,15.82,14.26,18,27.43,5.35,43.76-15.38,19.85-45.24,32-68.84,27.08-2.76-.58-.19-4.64-3.51-5.56-.94,11.18-1.8,16.79-2.76,27.64-.77,8.51,2.33,14.9,1.75,23.42-.76,11.3,4.17,18.44,10.48,28,4.24,6.43,12.19,10.11,11.55,20.43-.45,7.36,1.92,18.13,3.89,25.72.58,2.21.09,4.7.09,7.1-9.25-.9-8.34-.79-9.44,8.42-.73,6.16-.37,13.77-7.49,17.7a11.12,11.12,0,0,0-2.8,2.8c-6.34,7.65-12.68,9.19-6.52,17.11,10.72,13.74,21.59,27.36,32.15,41.23,2.87,3.78,5.68,4.65,10.14,3.13,10.23-3.46,20.5-6.77,30.91-9.58,13.44-3.64,21.86-.24,29.75,11,4.44,6.32,8.89,12.63,13.71,18.63a71,71,0,0,1,14.85,32.74,14.13,14.13,0,0,0,1.2,2.93v13.24a21.35,21.35,0,0,0-1.29,3.58c-2.71,16.94-5.47,33.88-8,50.84-1.67,11.22-5.37,20.86-17.19,25H508.92c-14.39-1.66-28.76-4-43.19-4.73a72.15,72.15,0,0,1-32.06-8.86c-21.23-11.65-42.8-22.68-64.23-34-.19-.1-.41-.16-.62-.25-28.08-13.26-26.53-33.72-4.77-50.9,7.42-5.85,16.88-9.22,25.64-13.21,3.88-1.76,5-3.57,4.61-8-.48-5.15,1-10.44,1-15.68,0-3.64-.15-7.92-2-10.81-6.46-10.19-12.64-17.81-19-26.89-2.1,2.28-3.46,5-5.54,5.77a163.7,163.7,0,0,1-21.27,6.54c-4.73,1.06-7,3.4-8.52,7.85-3.08,9.22-6.62,18.29-15.7,23.57-.56.33-1,1.16-1.56,1.16-13,0-19.52,11.58-29.63,16.77-12.23,6.27-24.3,12.49-38.69,9.12-1.49-.34-6.94-3.37-7.11-4.34-.23-1.32.84-3.35,2-4.38,5.71-5.17,11.61-10.12,15.77-15.59.38-3.7.5-7.46,1.21-11.11.75-3.85,2.75-7.55,3-11.41.71-11,2-17.34-10.8-23-13.87-6.07-27-13.7-40.64-20.44-1.35-.68-1.32-.94-3-.83.26,1.55,0,3.52.89,4.58,1.78,2.2,4.31,3.76,6.29,5.81,2.89,3,5.91,9.95,3.08,16.13-1.1,2.4-2.1,4.87-3.42,7.14-9.75,16.76-24.71,18.44-40.09,6.44q-34.64-27-67.4-56.45c-15.34-13.79-12.71-32.66-4.07-48.35,3.62-6.57,10.28-8.82,17.15-5.69,5.9,2.7,11.3,6.68,16.52,10.64,7.51,5.69,14.44,12.18,22.1,17.66a49.37,49.37,0,0,0,9,1c7.45-3.69,18.25-9.53,32.22-17.7,1.62-1,2.22-3.65,3.55-6,4.23,20.87,13.32,38.25,34.55,46.1,10.23,3.77,21.73,2.38,32.08-3.26-1.85-2.47-3.59-4.92-5.48-7.27-1.76-2.17-3.66-4.21-4.53-7.57A24,24,0,0,1,269.9,394c8.1,7.55,17.52,8.68,26.39,2.92,11.34-7.36,21.9-16,32.46-24.43,9.57-7.69,18.39-16.27,30.91-19.32,15.43-3.78,30.94,3.59,36.36,18.49,3,8.18,4.57,16.85,7,25.25a22.23,22.23,0,0,0,5.08,9.34c0-5.63,1.39-11.71-.29-16.78-3.38-10.1-8-19.85-12.89-29.37-5.66-11.13-15-16.85-29.66-15.6,7.41-4.16,13-4.09,18.25-.34,16.94,12.14,26.95,28.63,30,49.22.95,6.46,1.39,13,2.05,19.5,11.78-4.39,18.57-14.71,10.37-38.42l11.41,4.13c2.37-12.54-2.27-22.7-2.45-35-4.79-7.33-16.56-14.46-21.72-22.83a13.39,13.39,0,0,1-1.77-6.83q.51-41,1.34-82.05a51.47,51.47,0,0,1,1.13-7c1,.73,1.92,1,2.28,1.66,9.16,15.76,24.9,18.5,42.26,13.41,10.74-3.15,19.34-9.53,26.38-18,9.77-11.77,7.92-23.64-4.8-32.06-2.2-1.46-4.47-2.8-7.13-4.47,1.08-1.46,2-2.73,3-4.09-.67-.52-1.1-1.11-1.68-1.29-10.59-3.32-20.81-2-31,2.09-3.31,1.33-7.14,1.24-10.68,2.06-1.8.42-4,1-5.07,2.26-6.24,7.15-12.22,14.53-18.18,21.71-2.89-6.07-2.22-16.66-13.65-20.56l9.34-20.81-2.45-4.32.91-.76,7.8,8.88-4.43,3.57c.18.6.35,1.21.53,1.82,2.94-.84,6.59-.92,8.57-2.79,1.46-1.38,1.67-5.42.83-7.68-4.63-12.58-28.6-24-41.15-19.92-1.53.49-2.77,1.86-5.58,3.83,7.91-.87,14.58-3.91,19.69,3.35-10.47-4.43-17.09,2.37-24.11,7.94-4.57-13.15-17.07-23.42-28.1-23.09l3.07,7.59c-13.17-1.91-26-3.94-39.34,4.4,5.9.68,10.28,1.21,16,1.88L299,171.37c.41.43.82.86,1.21,1.29,8.69-3.4,17.28-7.28,26.18-4.84l-33,13.83c-.09-.61-.41-3-.72-5.44L262.66,190l-.18,1.54c5.93,1.38,11.83,2.88,17.79,4.09,5.1,1,11,3.69,15.17,2,3.59-1.42,5.23-7.85,8.14-12.77v7.59l11.9-5.87.91,1.52a33.68,33.68,0,0,0-4.45,3.94c-1.54,1.93-4.24,5.18-3.64,6.13a11.83,11.83,0,0,0,6.93,5.17,89.59,89.59,0,0,0,17.63,1.5c17.13-.07,34.23-.21,50.74,5.38.73.24,1.43.56,2.42.95-7.15,5.33-14,3.37-21.07.19,9.57,13.28,13.41,27.71,12.95,43.45a14.06,14.06,0,0,0,1.26,5.06c2.36,6.34,2.29,11.53-5.47,14-1.48.48-2.66,2.21-3.75,3.55-4.23,5.21-8.37,10.5-12.85,16.16l4.44-1.74c-9,10.77-19.93,15.18-34,9.19,10.37,16.94,9.85,30.79-2.4,42.54-9.41,9-19.36,15.91-36.48,4.65-2.63,2.87-5.24,5.83-8,8.67-14.73,15.47-32.75,13-42.84-5.75-1.34-2.51-3.16-4.85-4-7.5-3.4-10.12-12.07-11.68-20.78-13-1.82-.26-4.19.77-5.78,1.93-2.83,2.06-5.16,4.81-7.9,7-3.26,2.62-6.92,4.68-4.79,10.08.53,1.36-1.1,3.65-1.9,5.44-1.8,3.92-3.7,7.8-5.76,12.12l6.53.9c.13,2.27,1.47,8.71,1.57,10.63-4.51,2.28-7.26.52-16.17,6-3.59-6.86-5-15,1.25-28.65-4.6-4.83-4.95-5.69-.45-10.56a207.52,207.52,0,0,1,15.8-15c6-5.28,9.91-11.08,10.3-19.65.48-10.91-.23-16,11-19.8,4.83-1.63,11.16-4.92,12.64-9.09a103.11,103.11,0,0,0,4.28-13.79c.56-2.75.76-6.61-.74-8.51-3.05-3.89-1.93-6.11,1-8.91,7.37-6.93,7.75-16.87,10.76-25.68,1.26-3.7,2.46-7.42,3.8-11.44-18-1.42-26.67-16.43-31.72-32.54-7.6-26.8,6-45.79,36-49.22,10.11-1.16,15.71,1.15,22.25,7,8.28,7.4,11.14,17.48,13.44,29,5.29-4.12,6.83-3.58,11.53-7.25-.1-.5-.19-1-.3-1.5-3,.31-6,.83-9,.87a7,7,0,0,1-4.52-1.43c-.54-.5-1.14-7.39-.3-8.12A149.62,149.62,0,0,1,300,139.37c6.07-4.1,13.85-6.44,18.59-11.62,11.45-12.54,24.22-22.31,40.69-26.94,1.3-.37,2.32-1.71,3.48-2.6Z"/><path class="cls-2" d="M417.46,136c-11.85-5-19-3.61-26.48,5.13l19.54,6.9,1.12-2.37L402,137c4.77,1.81,8.29,2.88,11.56,4.46,4.09,2,5.76.9,5.54-3.52,6,3.63,13.42,1.07,13.91-4.81,6.87,3.56,7.77,3.12,12-5.69,7.44,3.35,10.24-3.56,15.23-5.61-.17-.54-.35-1.09-.53-1.63L430,122.78c1.23,4,2.24,7.3,3.27,10.6-9.54-9.1-10.58-9.29-19.38-3.47C415.08,132,416.27,134,417.46,136Z"/><path class="cls-2" d="M401.9,428.56l-2.64,2.31c-2.43-2.63-5.07-5.08-7.23-7.9-4.3-5.59-8.13-11.54-12.5-17.06-7.44-9.39-14.3-10.61-24.67-5.12,8.29,13.26,16.05,26.93,25.05,39.71,10.84,15.41,20.79,31.69,37.82,44.09-7.75-1-13.52-.33-14.41,6.75-.49,3.8.29,8.59,2.35,11.73,4.07,6.21,9.36,11.63,14.32,17.21a9,9,0,0,0,4.43,2.37c8.44,2,16.94,3.87,26.56,6-2,1.22-3.16,2.64-4.23,2.54a51.51,51.51,0,0,1-9-1.93c-7.89-2.32-17.62,0-22.47-10.13-1.12-2.34-7.64-4.76-9.57-3.61-11.39,6.79-26.78,6.79-35,19.75.57-2.64,1.15-5.29,1.71-7.93-.37,0-.6-.17-.72-.1-7.6,4.44-16.11,8.44-16.34,18.88-.23,10.68,8.23,14.8,16.1,18.84q38.68,19.88,77.56,39.45a84.77,84.77,0,0,0,8.66,3.27c.15-.36.31-.72.47-1.09l-4.7-4.35c4.17.79,7.83.82,10.9,2.17,17.95,7.81,37,9,56.09,9.54,9,.28,14.23-3.7,16-12.46,2.27-11.14,3.3-22.56,5.86-33.62,2.75-11.84,3.54-23.34-1.23-34.66l5.82-2.13c-3.91-20.68-27.08-55.15-39.33-58.32l3.55,5.91c-6.85-5.08-13.58-7.25-22.15-5.2-9.75,2.34-19.57,3.92-27.87,10.37,5.56,9.88,17.56,16.51,14.06,30a48.63,48.63,0,0,1-4-9C466.09,491,453,483.69,444.73,472.38c-7.12-.29-6.9-7.25-9.9-11.17-13.57-17.89-27.09-35.85-40.13-54.13-3.75-5.27-7.81-7.88-14.72-6.94Z"/><path class="cls-2" d="M266.44,507.16c19.32-6.35,22.54-23.56,27.4-39.71,1.44,14.47-4.45,26.48-12.07,38.07,6.53-4.55,12.43-9.44,18.42-14.23s12-9.38,18.06-14.12c1.42,2.35,2.37,3.95,3.84,6.4,3.75-7.93,7.19-15.21,10.83-22.93l-19.1-1.95c-2.27,6.33-4.31,12-6.36,17.67-1-3.66-.34-6.83,0-10.05.66-5.76,1.15-11-5.69-14.45-4.9-2.49-9.33-6.8-10.05-13.77,29.63,21.7,59,16.82,73.63,1.71l-24.83-9.18.6-1.75,18.58,2.59c-1.47-6.56-3.57-10.32-9.85-11.11-11-1.41-21.84-3.65-32.79-5.3-14.34-2.17-28.76-3.53-43,.11-13.34,3.39-26.28,3.77-38.87-2.86a6.27,6.27,0,0,0-5.26.45c-3.07,1.94-5.75,4.52-9.23,7.37l42.83,23.56c.36-2.27.65-4,1-6.44,10,12.59,14.83,25.68,12.11,41-.2,1.1.39,2.33.39,3.5,0,3.18.95,6.86-.34,9.42C273.9,496.8,269.94,501.86,266.44,507.16Z"/><path class="cls-2" d="M254.22,348.28l1.11-.26c.59,1.09,1.16,2.19,1.77,3.26q2.92,5,5.86,10.05c3.57-2.31,7.16-4.57,10.67-6.95.69-.46,1-1.48,1.66-2,9.82-8.4,19.46-17,29.62-25,4.75-3.73,9.14-2.63,12.81,1.71-9.45,2-17.45,6.29-23.68,13.83,5.82,4.74,11.32,4.51,17.14,1.69,7.76-3.76,13.32-9.66,15.66-17.79,4-14-4.08-24-16.21-22.36-7.61,1.07-15.12,3.82-22.27,6.81-7.95,3.33-15.44,7.76-23.55,11.94v-3.93L256,325.92c1-11.71-9.08-11.9-15.22-16a44.74,44.74,0,0,0,3.44-3c-3.18-4.48-5.75-10.07-10.1-12.85-4.54-2.89-10,.28-11.66,5.32a113.27,113.27,0,0,0-4.69,21.5c-.31,2.32,2.06,5,3.2,7.5l1.87-.41,2.51-7.13c11.76,11.66,13.62,30.28,29.52,39.54C254.62,355.53,254.42,351.91,254.22,348.28Z"/><path class="cls-2" d="M115,401.71c2,2.37,2.54,3.1,3.19,3.67,20.79,18,41.42,36.19,62.49,53.87,8.42,7.06,18.31,9.43,28.7,3.79,5.81-3.16,9.83-13.81,6.71-17.87-4.36-5.67-9.17-11-13.9-16.58-2.3,1.89-4.06,3.56-6,4.94-6.53,4.59-13.43,5.93-21,2.44-4.23-2-6.29-4.35-3.75-9.09,1.42-2.65,3.28-5.61,3.24-8.41-.09-7,4.3-15-4.15-20.44-9.17-5.89-18.2-12-27.63-18.25C136.66,390,134.78,405.72,115,401.71Z"/><path class="cls-2" d="M294.05,241.11c28.18-.51,54.09,7.58,79.11,17.74-.46-1.9-2-4.58-1.52-6.87,2.64-13-2.1-24-8.63-34.51-3.25-5.24-7.87-8.7-14.51-8.65-11.89.07-23.79-.07-35.67.1-1.75,0-4.4.78-5.08,2-3.86,7.1-7.25,14.45-10.9,21.94,3.55,1.46,5.29,2.19,7.77,3.2Z"/><path class="cls-2" d="M295.44,246.75c.53,4.3,1.22,8.55,1.57,12.84,1.31,15.82,15.56,32,30,34.06,17.72,2.48,33.16-6.56,39.94-23.22,2-4.86,1.26-8.68-3.91-10.44-12.91-4.4-25.71-9.4-38.95-12.44-11-2.52-11.12-1.42-14,10-.4,1.58-2.11,2.84-3.21,4.25-1-1.5-2.39-2.88-3-4.53s0-3.56-.46-5.21C302.55,248.64,302.33,244.08,295.44,246.75Z"/><path class="cls-2" d="M180.73,396.25c-.83,2.67-2.32,4.92-2,6.9,1.28,8.19.75,16.08-2.73,23.64-1.45,3.12-.75,4.71,2.53,5.95,6.2,2.39,11.46,1.21,16.31-3.08,2.94-2.58,5.92-5.15,9.07-7.46,8-5.89,16.14-11.64,23.37-16.84-6.85-9.1-13.13-17.42-20-26.49l-31.18,16.57.69,1.55Z"/><path class="cls-2" d="M292.12,271.66c-6.24,3.85-12.61,6.82-17.8,11.2-8.4,7.11-15.77,15.68-28.72,11.58,3.38,18.38,11.93,23.42,27.92,17.35,3.87-1.47,7.71-3.07,11.44-4.88,10.71-5.2,20.68-12.83,34.08-9.7-15.42-7.09-22.82-19.89-27.13-36.54-1.8,3.7-2.88,6-4,8.17C289.86,270.12,291.39,271.16,292.12,271.66Z"/><path class="cls-2" d="M264.17,239.29c-5.67,2.51-9.8,3.79-13.31,6-3.32,2.1-9.23,1.77-9.37,9.85,10.06-11,22.53-10.32,34.29-11.85,12.73-1.66,17.43-5.26,19.81-15.93a135.94,135.94,0,0,0,3.33-19.23c.16-1.83-2.44-4.95-4.43-5.63-3.62-1.26-7.74-1-11.59-1.66-7.5-1.34-12.67,1.5-16.16,8.12-2.83,5.4-6.27,10.5-8.79,16-1.86,4.09-2.67,8.67-4.07,13.44,2.45.12,3.55.13,4.63.23C259.74,238.79,261,239,264.17,239.29Z"/><path class="cls-2" d="M269.55,179.41c8.25,0,11.24-1.76,11.66-6.69.62-7.19-11.25-28.07-17.66-31.05-5.65-2.64-23,.64-28.17,5-20,16.81-6.49,47.09,10.09,54.4,5.5,2.43,10.32,2.52,14.69-2.12a31.42,31.42,0,0,1-21.9-28.29,61.77,61.77,0,0,1,.62-12.16c.75-4.79,8.56-6.88,14.07-3.63A33.56,33.56,0,0,1,269.55,179.41Z"/><path class="cls-2" d="M286.18,265.79l-1.94-1.49c-1-1.31-2.61-2.49-2.95-3.95-.79-3.37-.56-7-1.59-10.28-.52-1.66-3.05-4.06-4.38-3.9a168.79,168.79,0,0,0-20.42,4c-1.66.42-3.57,2.57-4.1,4.31-2.89,9.51-.13,18.6,3.52,27.2,2.22,5.26,7.38,5.71,11.58,2.32C272.94,278.24,279.44,271.88,286.18,265.79Z"/><path class="cls-2" d="M373.08,392.26c-.67-6.82-.76-13.85-2.13-20.61-2.87-14.26-7.9-16.08-20-7.91a32.12,32.12,0,0,0-3.66,2.79c-4.47,4-5.49,13-2.63,20.19,2.29,5.81,7.19,4.21,11.29,4.79.88-2.8,1.64-5.19,2.55-8.09l3,9.09C365.46,385.57,367.89,394,373.08,392.26Z"/><path class="cls-2" d="M109.05,384.86c0,6.69,7.57,14.77,13.75,14.61,7.06-.19,15.15-10.55,15.37-19.66.17-7.38-6.85-13.37-15.65-13.35C114.77,366.47,109.1,374.23,109.05,384.86Z"/><path class="cls-2" d="M392.42,393.64c5.58-11.84-1.81-27.63-14-31.25-5.85,10.14-2.59,21-3.3,31.8,3.69-1.22,6.41-2.81,9.15-2.84S389.81,392.85,392.42,393.64Z"/><path class="cls-2" d="M252,182.09c-.64-3.46-1.21-6.58-2-10.92l14.7,6.89c-2.61-4.7-4.23-7.78-6-10.75a21.19,21.19,0,0,0-2.89-3.61c-6.62-6.93-10.76-6.11-13.63,3-.83,2.63-1.26,5.87-.48,8.4C243.06,179.67,246.12,183,252,182.09Z"/><path class="cls-2" d="M343.63,410.55c-1.91-4.7-2.72-11.32-5.3-12.11-5.71-1.74-12.32-.54-18.86-.54C321.76,410.16,327,412.9,343.63,410.55Z"/><path class="cls-2" d="M379.69,110.07c-10.47-3.88-27.62,1.41-34.73,9.72C359.23,127.41,367.75,115.11,379.69,110.07Z"/><path class="cls-2" d="M318,391.69c.11.57.21,1.13.32,1.68l24-3.34c-1.61-5.37-3.07-10.26-4.72-15.74Z"/><path class="cls-2" d="M252,290.32c-2.42-7.68-4.69-14.85-7.27-23-2.69,7.35-5.07,13.84-7.47,20.41,2.9.65,5,1.22,7.07,1.59C246.61,289.71,248.94,289.93,252,290.32Z"/><path class="cls-2" d="M351.1,128.92c-6.49-9-14.23-8.42-20.79,2.22C337.54,129.13,344.75,135.29,351.1,128.92Z"/><path class="cls-2" d="M316.69,398.65c-4.24.86-8.31,1.43-12.19,2.61-1.35.41-2.26,2.31-3.36,3.51,1.26.93,2.41,2.42,3.79,2.66,3.76.65,7.61.78,11.76,1.14Z"/><path class="cls-2" d="M422.83,228.6l19.23-2.84c0-.7,0-1.4,0-2.09L422,217.75c7.21-15.13,28-26,42.86-22,4.94,1.35,9.28,4.87,13.88,7.41-.35.67-.71,1.32-1.07,2l-9.95-5.11c1.17,3,2.12,5.07,2.79,7.23,2.24,7.19-.26,15.23-7.38,18.56a61.2,61.2,0,0,1-36.44,5.31C425.8,231,425,230.08,422.83,228.6Zm23.94-.26c5.72-2.16,10.44-2.74,13.29-5.36,3.06-2.8,5.87-7.47,6-11.41.09-3.25-3.17-7.91-6.24-9.69-6.67-3.84-23.28,3.37-26.84,10.62l18.72,5.41Z"/><path class="cls-5" d="M401.9,428.56,380,400.14c6.91-.94,11,1.67,14.72,6.94,13,18.28,26.56,36.24,40.13,54.13,3,3.92,2.78,10.88,9.9,11.17,8.26,11.31,21.36,18.66,26.54,32.47a48.63,48.63,0,0,0,4,9c3.5-13.44-8.5-20.07-14.06-30,8.3-6.45,18.12-8,27.87-10.37,8.57-2.05,15.3.12,22.15,5.2l-3.55-5.91c12.25,3.17,35.42,37.64,39.33,58.32l-5.82,2.13c4.77,11.32,4,22.82,1.23,34.66-2.56,11.06-3.59,22.48-5.86,33.62-1.79,8.76-7,12.74-16,12.46-19.12-.56-38.14-1.73-56.09-9.54-3.07-1.35-6.73-1.38-10.9-2.17l4.7,4.35c-.16.37-.32.73-.47,1.09a84.77,84.77,0,0,1-8.66-3.27Q410.28,584.83,371.54,565c-7.87-4-16.33-8.16-16.1-18.84.23-10.44,8.74-14.44,16.34-18.88.12-.07.35.05.72.1-.56,2.64-1.14,5.29-1.71,7.93,8.18-13,23.57-13,35-19.75,1.93-1.15,8.45,1.27,9.57,3.61,4.85,10.15,14.58,7.81,22.47,10.13a51.51,51.51,0,0,0,9,1.93c1.07.1,2.28-1.32,4.23-2.54-9.62-2.17-18.12-4-26.56-6a9,9,0,0,1-4.43-2.37c-5-5.58-10.25-11-14.32-17.21-2.06-3.14-2.84-7.93-2.35-11.73.89-7.08,6.66-7.75,14.41-6.75-17-12.4-27-28.68-37.82-44.09-9-12.78-16.76-26.45-25.05-39.71,10.37-5.49,17.23-4.27,24.67,5.12,4.37,5.52,8.2,11.47,12.5,17.06,2.16,2.82,4.8,5.27,7.23,7.9Zm113,166.68c1.56-7.45-31.7-47.6-40.78-49.56ZM417.36,467.33l2.51-1.93-22.08-26.29L396,440.64Z"/><path class="cls-5" d="M266.44,507.16c3.5-5.3,7.46-10.36,10.27-16,1.29-2.56.36-6.24.34-9.42,0-1.17-.59-2.4-.39-3.5,2.72-15.33-2.12-28.42-12.11-41-.39,2.46-.68,4.17-1,6.44l-42.83-23.56c3.48-2.85,6.16-5.43,9.23-7.37a6.27,6.27,0,0,1,5.26-.45c12.59,6.63,25.53,6.25,38.87,2.86,14.29-3.64,28.71-2.28,43-.11,11,1.65,21.81,3.89,32.79,5.3,6.28.79,8.38,4.55,9.85,11.11l-18.58-2.59-.6,1.75,24.83,9.18c-14.63,15.11-44,20-73.63-1.71.72,7,5.15,11.28,10.05,13.77,6.84,3.49,6.35,8.69,5.69,14.45-.37,3.22-1,6.39,0,10.05,2.05-5.67,4.09-11.34,6.36-17.67l19.1,1.95c-3.64,7.72-7.08,15-10.83,22.93-1.47-2.45-2.42-4.05-3.84-6.4-6.08,4.74-12.11,9.38-18.06,14.12S288.3,501,281.77,505.52c7.62-11.59,13.51-23.6,12.07-38.07C289,483.6,285.76,500.81,266.44,507.16Z"/><path class="cls-5" d="M254.22,348.28c.2,3.63.4,7.25.68,12.12-15.9-9.26-17.76-27.88-29.52-39.54L222.87,328l-1.87.41c-1.14-2.51-3.51-5.18-3.2-7.5a113.27,113.27,0,0,1,4.69-21.5c1.71-5,7.12-8.21,11.66-5.32,4.35,2.78,6.92,8.37,10.1,12.85a44.74,44.74,0,0,1-3.44,3C247,314,257,314.21,256,325.92l8.78-6.69v3.93c8.11-4.18,15.6-8.61,23.55-11.94,7.15-3,14.66-5.74,22.27-6.81,12.13-1.69,20.24,8.39,16.21,22.36-2.34,8.13-7.9,14-15.66,17.79-5.82,2.82-11.32,3.05-17.14-1.69,6.23-7.54,14.23-11.82,23.68-13.83-3.67-4.34-8.06-5.44-12.81-1.71-10.16,8-19.8,16.61-29.62,25-.66.56-1,1.58-1.66,2-3.51,2.38-7.1,4.64-10.67,6.95q-2.94-5-5.86-10.05c-.61-1.07-1.18-2.17-1.77-3.26Z"/><path class="cls-5" d="M115,401.71c19.77,4,21.65-11.7,27.88-21.93,9.43,6.25,18.46,12.36,27.63,18.25,8.45,5.42,4.06,13.46,4.15,20.44,0,2.8-1.82,5.76-3.24,8.41-2.54,4.74-.48,7.13,3.75,9.09,7.56,3.49,14.46,2.15,21-2.44,2-1.38,3.73-3,6-4.94,4.73,5.59,9.54,10.91,13.9,16.58,3.12,4.06-.9,14.71-6.71,17.87-10.39,5.64-20.28,3.27-28.7-3.79-21.07-17.68-41.7-35.86-62.49-53.87C117.55,404.81,117.06,404.08,115,401.71Z"/><path class="cls-5" d="M294.05,241.11l10.57-5c-2.48-1-4.22-1.74-7.77-3.2,3.65-7.49,7-14.84,10.9-21.94.68-1.25,3.33-2,5.08-2,11.88-.17,23.78,0,35.67-.1,6.64,0,11.26,3.41,14.51,8.65C369.54,228,374.28,239,371.64,252c-.47,2.29,1.06,5,1.52,6.87C348.14,248.69,322.23,240.6,294.05,241.11Z"/><path class="cls-5" d="M295.44,246.75c6.89-2.67,17.71-1.72,28.67.8,13.24,3,26,8,38.95,12.44,5.17,1.76,5.88,5.58,3.91,10.44-6.78,16.66-22.22,25.7-39.94,23.22-14.46-2-28.71-18.24-30-34.06C296.66,255.3,296,251.05,295.44,246.75Z"/><path class="cls-5" d="M180.73,396.25l-3.92.74-.69-1.55,31.18-16.57c6.84,9.07,13.12,17.39,20,26.49-7.23,5.2-15.35,10.95-23.37,16.84-3.15,2.31-6.13,4.88-9.07,7.46-4.85,4.29-10.11,5.47-16.31,3.08-3.28-1.24-4-2.83-2.53-5.95,3.48-7.56,4-15.45,2.73-23.64C178.41,401.17,179.9,398.92,180.73,396.25Z"/><path class="cls-5" d="M292.12,271.66c-.73-.5,1.9,1.27,0,0,1.07-2.22-2-7.29-.21-11,4.31,16.65,11.71,29.45,27.13,36.54-13.4-3.13-23.37,4.5-34.08,9.7-3.73,1.81-7.57,3.41-11.44,4.88-16,6.07-24.54,1-27.92-17.35,13,4.1,20.32-4.47,28.72-11.58C279.51,278.48,285.88,275.51,292.12,271.66Z"/><path class="cls-5" d="M264.17,239.29c-3.21-.34-4.43-.5-5.66-.59-1.08-.1-2.18-.11-4.63-.23,1.4-4.77,2.21-9.35,4.07-13.44,2.52-5.53,6-10.63,8.79-16,3.49-6.62,8.66-9.46,16.16-8.12,3.85.69,8,.4,11.59,1.66,2,.68,4.59,3.8,4.43,5.63a135.94,135.94,0,0,1-3.33,19.23c-2.38,10.67-7.08,14.27-19.81,15.93-11.76,1.53-24.23.81-34.29,11.85.14-8.08,6-7.75,9.37-9.85C254.37,243.08,258.5,241.8,264.17,239.29Z"/><path class="cls-5" d="M269.55,179.41A33.56,33.56,0,0,0,253,154.83c-5.51-3.25-13.32-1.16-14.07,3.63a61.77,61.77,0,0,0-.62,12.16,31.42,31.42,0,0,0,21.9,28.29c-4.37,4.64-9.19,4.55-14.69,2.12-16.58-7.31-30.07-37.59-10.09-54.4,5.13-4.32,22.52-7.6,28.17-5,6.41,3,18.28,23.86,17.66,31.05C280.79,177.65,277.8,179.42,269.55,179.41Z"/><path class="cls-5" d="M286.18,265.79c-6.74,6.09-13.24,12.45-20.28,18.16-4.2,3.39-9.36,2.94-11.58-2.32-3.65-8.6-6.41-17.69-3.52-27.2.53-1.74,2.44-3.89,4.1-4.31a168.79,168.79,0,0,1,20.42-4c1.33-.16,12.06-.38,12.58,1.29C288.93,250.72,285.54,265.3,286.18,265.79Z"/><path class="cls-5" d="M373.08,392.26c-5.19,1.75-7.62-6.69-11.57.25l-3-9.09c-.91,2.9-1.67,5.29-2.55,8.09-4.1-.58-9,1-11.29-4.79-2.86-7.21-1.84-16.19,2.63-20.19a32.12,32.12,0,0,1,3.66-2.79c12.07-8.17,17.1-6.35,20,7.91C372.32,378.41,372.41,385.44,373.08,392.26Z"/><path class="cls-5" d="M109.05,384.86c0-10.63,5.72-18.39,13.47-18.4,8.8,0,15.82,6,15.65,13.35-.22,9.11-8.31,19.47-15.37,19.66C116.62,399.63,109,391.55,109.05,384.86Z"/><path class="cls-5" d="M392.42,393.64c-2.61-.79-5.37-2.32-8.11-2.29s-5.46,1.62-9.15,2.84c.71-10.82-2.55-21.66,3.3-31.8C390.61,366,398,381.8,392.42,393.64Z"/><path class="cls-5" d="M252,182.09c-5.84.88-8.9-2.42-10.31-7-.78-2.53-.35-5.77.48-8.4,2.87-9.11,7-9.93,13.63-3a21.19,21.19,0,0,1,2.89,3.61c1.78,3,3.4,6.05,6,10.75L250,171.17C250.75,175.51,251.32,178.63,252,182.09Z"/><path class="cls-5" d="M343.63,410.55c-16.63,2.35-21.87-.39-24.16-12.65,6.54,0,13.15-1.2,18.86.54C340.91,399.23,341.72,405.85,343.63,410.55Z"/><path class="cls-5" d="M379.69,110.07c-11.94,5-20.46,17.34-34.73,9.72C352.07,111.48,369.22,106.19,379.69,110.07Z"/><path class="cls-5" d="M433.23,133.36c-1-3.28-2-6.56-3.25-10.58l29.69-2.57c.18.54.36,1.09.53,1.63-5,2-7.79,9-15.23,5.62-4.19,8.8-5.09,9.24-12,5.68C433,133.15,433.23,133.36,433.23,133.36Z"/><path class="cls-5" d="M419.1,138c.22,4.42-1.45,5.5-5.54,3.52-3.27-1.58-6.79-2.65-11.56-4.46l9.64,8.67-1.12,2.37L391,141.15c7.47-8.74,14.63-10.08,26.48-5.13Z"/><path class="cls-5" d="M318,391.69l19.6-17.4c1.65,5.48,3.11,10.37,4.72,15.74l-24,3.34C318.25,392.82,318.15,392.26,318,391.69Z"/><path class="cls-5" d="M419.1,138,417.46,136c-1.19-2-2.38-4.07-3.59-6.11,8.8-5.82,9.84-5.63,19.37,3.46,0,0-.22-.22-.22-.23C432.52,139,425.12,141.58,419.1,138Z"/><path class="cls-5" d="M252,290.32c-3-.39-5.37-.61-7.67-1-2.11-.37-4.17-.94-7.07-1.59,2.4-6.57,4.78-13.06,7.47-20.41C247.29,275.47,249.56,282.64,252,290.32Z"/><path class="cls-5" d="M351.1,128.92c-6.35,6.37-13.56.21-20.79,2.22C336.87,120.5,344.61,120,351.1,128.92Z"/><path class="cls-5" d="M316.69,398.65v9.92c-4.15-.36-8-.49-11.76-1.14-1.38-.24-2.53-1.73-3.79-2.66,1.1-1.2,2-3.1,3.36-3.51C308.38,400.08,312.45,399.51,316.69,398.65Z"/><path class="cls-5" d="M446.77,228.34l4.91-10.43L433,212.5c3.56-7.25,20.17-14.46,26.84-10.62,3.07,1.78,6.33,6.44,6.24,9.69-.11,3.94-2.92,8.61-6,11.41C457.21,225.6,452.49,226.18,446.77,228.34Z"/><path class="cls-2" d="M514.85,595.24l-40.78-49.56C483.15,547.64,516.41,587.79,514.85,595.24Z"/><path class="cls-2" d="M417.36,467.33,396,440.64l1.83-1.53,22.08,26.29Z"/><rect x="172.47" y="369.84" width="14" height="14"/><path d="M338.91,269.7c0,9.31-5.67,16.87-12.66,16.87S313.58,279,313.58,269.7s5.67-16.87,12.67-16.87S338.91,260.38,338.91,269.7Z"/><path d="M275.44,263.79c0,6.69-4.07,12.12-9.09,12.12s-9.09-5.43-9.09-12.12,4.07-12.11,9.09-12.11S275.44,257.1,275.44,263.79Z"/></g></g></svg>