<svg xmlns="http://www.w3.org/2000/svg" viewBox="0 0 199.86 192.71"><defs><style>.cls-1{fill:#020202;}.cls-2{fill:#fcfcfc;}</style></defs><title>stone circle</title><g id="background"><path class="cls-1" d="M214.79,87.66c-.13-1-.32-2-.49-2.8l-.18-.94A40.36,40.36,0,0,0,210.6,73a14.33,14.33,0,0,0-6.41-6.89,12.83,12.83,0,0,0-5.78-1.37,14.79,14.79,0,0,0-4.76.81,35.54,35.54,0,0,0-4,1.68c-.13-.31-.26-.63-.42-1a9.12,9.12,0,0,0-5.17-4.68,7.53,7.53,0,0,0-.6-1.45l-.32-.57c-.33-.6-.66-1.18-1-1.74s-.59-.87-.9-1.29c-.12-.18-.26-.35-.36-.51-.18-.33-.38-.63-.59-.94.3-.33.59-.65.88-1s.6-.71.9-1a13.59,13.59,0,0,0,3.69-9.85,36.31,36.31,0,0,0-1.72-9.72,9.57,9.57,0,0,0-9-6.79,8.46,8.46,0,0,0-2,.24,12.56,12.56,0,0,0-6.54,3.81l-.84.93c-.79.87-1.58,1.75-2.34,2.63l-.49.58c-.49.56-1,1.14-1.48,1.73-.26-.26-.52-.5-.75-.72l-.26-.25a13.56,13.56,0,0,1-2.6-3.23c-2.33-4.31-5.72-5.22-8.14-5.22h-.11a7.06,7.06,0,0,0-2.14.36,8.47,8.47,0,0,0-3.94,2.18,20.71,20.71,0,0,0-3.42,4.52l-.08,0L138.79,34l-3.1-.85-.46-.15c-.44-.15-.88-.29-1.32-.41l-.16,0a12,12,0,0,0-2-.45,8.46,8.46,0,0,0-8.67-7.72h-6c-.07-.44-.15-.87-.22-1.29s-.15-.86-.22-1.29a9.27,9.27,0,0,0-9.14-7.81,10.09,10.09,0,0,0-1.64.14c-.71.12-1.41.25-2.12.4s-1.25.28-1.87.42c-1.12.26-2.18.51-3.12.64a11.32,11.32,0,0,0-8.25,5,11.58,11.58,0,0,0-1.83,8.9h0a13.79,13.79,0,0,0-2.09.34c-1.09.27-2.08.59-3,.89-.6.19-1.21.38-1.82.55s-1.14.28-1.72.42c-.73.16-1.47.33-2.2.53a9.78,9.78,0,0,0-1.66.63L76,32.46c-.22-.42-.42-.85-.61-1.28s-.45-1-.68-1.44L73.35,27c-.36-.7-.72-1.41-1.07-2.12-.15-.29-.28-.58-.42-.87-.28-.6-.61-1.29-1-2a12.13,12.13,0,0,0-2.33-3A7.81,7.81,0,0,0,63.2,16.9a7.59,7.59,0,0,0-7.31,5.75,26.38,26.38,0,0,0-.6,2.7c-.11.64-.2,1.28-.28,1.92s-.15,1.05-.23,1.57c-.22,1.29-.45,2.57-.68,3.89l-.33,1.8a7.23,7.23,0,0,0,.12,3c0,.22.1.44.16.67a22.5,22.5,0,0,0,.84,3,12.42,12.42,0,0,0,1.49,2.74l.17.26.41.72c-.11.06-.21.1-.32.17A40,40,0,0,0,52.19,48a9.58,9.58,0,0,0-4,6.72,8.91,8.91,0,0,0,.58,4.1c-.89.65-1.8,1.3-2.71,2a9.59,9.59,0,0,0-2,2l-.62-.42c-.44-.29-.91-.56-1.37-.82a5.51,5.51,0,0,1-.58-.34,15.61,15.61,0,0,0-7.34-2.72,8.49,8.49,0,0,0-.88,0,6.94,6.94,0,0,0-2.25.37l-.42.13-1.46.5a13.19,13.19,0,0,0-7.14,6c-1.17,2.07-2.11,4.13-3,6.12l-.18.4c-.49,1.08-.86,2.11-1.19,3-.1.29-.2.59-.31.87s-.29.77-.44,1.16c-.46,1.2-.93,2.45-1.34,3.83a9.4,9.4,0,0,0,1.71,9.3,13.79,13.79,0,0,0,4.58,3.43c.78.34,1.55.65,2.31,1-.48,1.84-.8,3.61-1.11,5.33l-.17.93c-.43,2.38-.87,4.84-1.21,7.35a14.79,14.79,0,0,0,.23,5.16,10.09,10.09,0,0,0,6.29,7.44,10.44,10.44,0,0,0,.11,4.16c.24,1,.45,2.12.66,3.18.16.81.32,1.62.49,2.41a7.54,7.54,0,0,0,.49,1.5A34.65,34.65,0,0,0,25,134.3a9.94,9.94,0,0,0-5.38,9.16c0,.14,0,.28,0,.42a6.29,6.29,0,0,0,.05.86l.05.54c.06.6.14,1.34.3,2.16a24.39,24.39,0,0,0,.77,2.92,10.25,10.25,0,0,0,9.44,7,8.33,8.33,0,0,0,3.33-.68l2.61-1.16a14.07,14.07,0,0,0,1.19,1.72,14.2,14.2,0,0,0-2.77,3.31,9.74,9.74,0,0,0-1.47,7.33,15.88,15.88,0,0,0,1.32,3.57,16.45,16.45,0,0,0,4.12,5.22c.81.72,1.62,1.35,2.33,1.9l.75.59,1,.82c1,.81,2,1.64,3.15,2.46a11.49,11.49,0,0,0,2.6,1.41l.35.15a7,7,0,0,0,6.1,0l.27-.11a10.67,10.67,0,0,0,3.42-2l.33-.31a11.18,11.18,0,0,0,4.3,2.44,8,8,0,0,0,.59,2.35,8.67,8.67,0,0,0,5,4.85l.62.22a9.52,9.52,0,0,0,.39,5.19A10.16,10.16,0,0,0,76,202.7c1.82.63,3.61,1.13,5.34,1.62l1.13.32c.72.21,1.45.4,2.18.59,1,.26,2,.51,2.83.79a10.22,10.22,0,0,0,3.12.5,9.12,9.12,0,0,0,8.34-5.28c.12,0,.25,0,.38.06.45,0,.9.08,1.35.11.27,0,.53,0,.79.06,1.38.16,2.76.32,4.13.52a8.93,8.93,0,0,0,1.27.09,9.45,9.45,0,0,0,1.61-.14,10.08,10.08,0,0,0,1.1,1,9.7,9.7,0,0,0,5.85,1.9,13,13,0,0,0,2.06-.17,9.85,9.85,0,0,0,6.07-3.14c.61.14,1.22.28,1.81.4l.72.15a7,7,0,0,0,1.51.16,6.53,6.53,0,0,0,1.25-.11l1.19-.2,1.39-.25c1.58,3.29,4.4,5,8.43,5h0a7.59,7.59,0,0,0,1.65-.19l.56-.14,1.82-.43.12,0a9.86,9.86,0,0,0,2.55-.86c1.54-.76,3.06-1.56,4.51-2.35.88-.47,1.77-1,2.82-1.71.57-.37,1.13-.75,1.69-1.14s1.09-.75,1.65-1.12a10.27,10.27,0,0,0,4.86-9.24,34.09,34.09,0,0,0,4.2-2.6c.26-.18.5-.37.73-.56a9.05,9.05,0,0,0,3.24.62,8.46,8.46,0,0,0,5.62-2.12c1-.86,1.92-1.74,2.88-2.61l1.9-1.74a9.16,9.16,0,0,0,2-2.57,8.35,8.35,0,0,0,1.22.09,9.65,9.65,0,0,0,7.31-3.33,18.41,18.41,0,0,0,2.23-3.18c.6-1,1.17-2.09,1.73-3.14l.73-1.33c.18-.33.36-.66.55-1,.43-.77.86-1.55,1.26-2.33s.68-1.46,1-2.09l.3-.71a7.09,7.09,0,0,0,.1-5.48c-.08-.19-.15-.38-.22-.57a18.54,18.54,0,0,0-1.11-2.56,10.23,10.23,0,0,0-4-4.09c-.37-.2-.74-.38-1.12-.57a15.08,15.08,0,0,0,.76-2.69,10.73,10.73,0,0,0,2.11.23,9.91,9.91,0,0,0,9.27-6.16c.71-1.77,1.37-3.54,2-5.33a9.17,9.17,0,0,0,.38-1.28,9.17,9.17,0,0,0,.26-6.87,10,10,0,0,0-4.38-5.23,16.77,16.77,0,0,0,.07-4.55,10.36,10.36,0,0,0-1.1-3.59,7.08,7.08,0,0,0,.47-1.18,17.88,17.88,0,0,0,.7-3.73,9.76,9.76,0,0,0-.29-3c-.1-1-.17-2.1-.25-3.16v-.21a10.45,10.45,0,0,0-.27-1.69,41.85,41.85,0,0,0,6.33-1.62C213.1,95.91,215.39,92.22,214.79,87.66ZM110.7,141.77l-.77-.08-.84-.1a7.81,7.81,0,0,0-1.18-.09c-.2,0-.39,0-.59.05a10.35,10.35,0,0,0-1-.46l-.09,0c-.48-.19-1-.41-1.42-.62s-1-.47-1.5-.68a7.76,7.76,0,0,0-2.34-.6,10,10,0,0,0-.89-.73,7.05,7.05,0,0,0-2-1,9.16,9.16,0,0,0-1.07-1,7.57,7.57,0,0,0-2.56-1.62,8.26,8.26,0,0,0-.85-1.21l-.57-.68c-.77-.92-1.54-1.84-2.35-2.76-.13-.15-.28-.28-.42-.43a8.11,8.11,0,0,0-1.6-3l-.18-.22a11.69,11.69,0,0,0-.86-3l-.09-.19a9.25,9.25,0,0,0-1.09-2.18,9.38,9.38,0,0,0-.8-5.09c-.05-.11-.11-.21-.16-.31a10.08,10.08,0,0,0,.66-2.7c.07-.7.14-1.39.24-2l0-.21a15.18,15.18,0,0,0,.39-1.79,8.57,8.57,0,0,0,0-2,10.29,10.29,0,0,0,.57-1c.22-.43.41-.87.6-1.31,0-.13.09-.25.13-.33.44-.82.92-1.66,1.43-2.48a8.59,8.59,0,0,0,.85-1.82,11,11,0,0,0,2.41-2.44l.17-.23a6.78,6.78,0,0,0,.88-1.39,7.65,7.65,0,0,0,.94-.67c.33-.28.68-.55,1-.83l.63-.5a6.67,6.67,0,0,0,.86-.82c.24-.08.47-.16.71-.26a8.46,8.46,0,0,0,3-2.15,11,11,0,0,0,1.85-.41c1.14-.36,2.27-.75,3.4-1.14a7.4,7.4,0,0,0,1.34-.62c.24,0,.48.06.73.06a9,9,0,0,0,2.48-.36l.19,0a12.43,12.43,0,0,0,2.85-.64,9,9,0,0,0,3,.7h.47a8.52,8.52,0,0,0,1.24-.1,9.91,9.91,0,0,0,2.58.86l.12,0a9,9,0,0,0,2.67.4c.16,0,.32,0,.48,0l.42.3a21.82,21.82,0,0,0,2.58,1.42,8.92,8.92,0,0,0,1.78.61l.15.24a8.73,8.73,0,0,0,4.08,3.08,7.15,7.15,0,0,0,1.14,1.54,8.15,8.15,0,0,0,1.38,1.12,7.66,7.66,0,0,0,1.06,1.66,10.35,10.35,0,0,0,1.16,1.62,6.14,6.14,0,0,0,.77.76,9.42,9.42,0,0,0,.6,1.94c.19.42.4.83.62,1.24.07.13.14.25.2.39a9.27,9.27,0,0,0,1.42,2.68,9,9,0,0,0,0,1.38c.06,1,.16,2,.29,2.92a9.46,9.46,0,0,0,.34,1.55,8,8,0,0,0-.2,3.86,11.28,11.28,0,0,0-1.06,3,9.49,9.49,0,0,0-.17,2.36,7.22,7.22,0,0,0-1,2.56l0,.15a12.59,12.59,0,0,0-.28,1.93,10.54,10.54,0,0,0-.81.74,18.87,18.87,0,0,0-2.05,2.61,11.11,11.11,0,0,0-.74,1.32,8,8,0,0,0-2.7,2.1l-.22.2a9,9,0,0,0-1,1.11,9.33,9.33,0,0,0-1.34.72l-.67.47a9.52,9.52,0,0,0-2.24,1.77,9.06,9.06,0,0,0-1.81.63l-.6.28-1.15.53-.73.31-1,.44c-.26.12-.52.25-.76.39l-.32,0-.5,0c-.44,0-.87.07-1.31.13l-.24,0a8.53,8.53,0,0,0-3,.59,9,9,0,0,0-1.28-.1h-.39a9.21,9.21,0,0,0-1.8.24A8.61,8.61,0,0,0,110.7,141.77Z" transform="translate(-15.03 -13.91)"/></g><g id="circle"><path class="cls-2" d="M33.29,65.59a8.67,8.67,0,0,1,4.13,1.47c.68.48,1.45.84,2.16,1.3,1.12.74,2.21,1.51,3.32,2.27L46.38,73c1,.72,2.09,1.45,3.14,2.16.75.51,1.53,1,2.28,1.48,1.14.76,2.27,1.55,3.42,2.3s2.33,1.48,3.48,2.25,2.11,1.52,3.19,2.25,2.28,1.46,3.41,2.2c.75.49,1.48,1,2.24,1.5s1.34.82,2,1.22q2.34,1.37,4.69,2.7t4.61,2.58c1.22.69,2.46,1.35,3.67,2.05s1.56,1.64,1,2.54-1.13,1.89-1.64,2.85c-.31.58-.51,1.2-.81,1.78-.39.78-.65,1-1.56.55a8,8,0,0,0-1.34-.35l-4.61-1.28-3.47-1-6-1.69-3.63-1c-2.23-.62-4.46-1.21-6.68-1.86-1.92-.55-3.82-1.15-5.72-1.76s-3.7-1.2-5.55-1.8c-1-.3-1.93-.59-2.9-.87q-3.4-1-6.82-1.92c-1-.28-2-.47-3-.8-1.72-.59-3.45-1.19-5.1-1.94a6.63,6.63,0,0,1-2.18-1.64,2.65,2.65,0,0,1-.24-2.6c.46-1.54,1.08-3,1.64-4.54.42-1.14.79-2.31,1.3-3.41.91-2,1.82-4.05,2.92-6a6,6,0,0,1,3.3-2.77Z" transform="translate(-15.03 -13.91)"/><path class="cls-2" d="M149.29,104.47a1.78,1.78,0,0,1-2.09-1.32c-.25-.77-.71-1.47-1-2.22a1.15,1.15,0,0,1,.6-1.59c1.35-.8,2.67-1.63,4-2.44.59-.35,1.22-.65,1.82-1l4.88-2.81c1.86-1.07,3.7-2.16,5.56-3.21,1.59-.91,3.21-1.78,4.8-2.68,2-1.11,3.92-2.24,5.88-3.34s3.65-2.06,5.48-3.08l4.67-2.58c1.39-.78,2.76-1.59,4.16-2.33,1-.51,2-.94,3-1.4a53.2,53.2,0,0,1,4.89-2.18,6.35,6.35,0,0,1,5.1.17,7.34,7.34,0,0,1,3.25,3.73,33.27,33.27,0,0,1,2.89,9c.21,1.12.46,2.24.61,3.37.17,1.29-.25,1.82-1.51,2.27A42.11,42.11,0,0,1,200,92.38c-2.56.51-5.09,1.14-7.64,1.73-1.29.3-2.58.64-3.88,1L180.92,97c-1,.24-1.92.49-2.88.71-1.68.39-3.36.74-5,1.13-1.11.26-2.2.56-3.3.83l-7.9,1.87-3.38.83c-1.43.34-2.88.65-4.31,1-1.27.32-2.53.73-3.81,1.07A5.71,5.71,0,0,1,149.29,104.47Z" transform="translate(-15.03 -13.91)"/><path class="cls-2" d="M51.84,177.59a11.71,11.71,0,0,1-1.77-.86c-1.36-1-2.67-2.08-4-3.14-.92-.73-1.89-1.43-2.77-2.22a9.8,9.8,0,0,1-2.43-3,9.44,9.44,0,0,1-.8-2.06,3,3,0,0,1,.66-2.21c.84-1.41,2.21-2.25,3.38-3.28,1-.85,2.17-1.46,3.23-2.21s2-1.45,3-2.17c1.17-.84,2.36-1.67,3.54-2.49S56,152.54,57,151.83c.73-.49,1.49-.94,2.22-1.43,1.66-1.1,3.29-2.23,5-3.31,1.19-.78,2.43-1.49,3.63-2.26,1.63-1,3.24-2.12,4.88-3.14,1.29-.81,2.63-1.54,3.91-2.35,1.12-.71,2.19-1.49,3.29-2.22.66-.43,1.33-.84,2-1.24s1.57-.83,2.29-1.32.87-.05,1.16.28c1,1.09,1.88,2.2,2.81,3.31a1.77,1.77,0,0,1-.24,2.47c-1.37,1.47-2.76,2.92-4.13,4.39-1.05,1.14-2.07,2.3-3.13,3.43s-2.13,2.18-3.16,3.31c-.86.95-1.64,2-2.5,2.94s-1.55,1.56-2.31,2.36-1.65,1.87-2.51,2.77c-1.35,1.41-2.75,2.78-4.1,4.19-.82.84-1.57,1.74-2.38,2.59s-1.62,1.57-2.39,2.39-1.63,1.88-2.5,2.77c-1.63,1.64-3.26,3.27-5,4.82A8.51,8.51,0,0,1,51.84,177.59Z" transform="translate(-15.03 -13.91)"/><path class="cls-2" d="M139.84,199.54c-1.57,0-1.83-.23-2.25-1.37a55,55,0,0,1-2.13-7.2c-.56-2.47-1.26-4.91-1.9-7.35l-.9-3.47c-.64-2.47-1.26-5-1.91-7.43s-1.28-4.79-1.91-7.19-1.2-4.92-1.94-7.34a49.79,49.79,0,0,1-1.93-7.48c-.08-.55-.27-1.08-.39-1.63a1.26,1.26,0,0,1,.88-1.5c.59-.26,1.19-.49,1.78-.75s1.25-.58,1.88-.87a1.18,1.18,0,0,1,1.67.39,34.89,34.89,0,0,1,3.5,5.51c1,2,2.22,4,3.32,5.95.75,1.37,1.43,2.78,2.21,4.14,1.05,1.85,2.18,3.66,3.24,5.5.51.87.92,1.79,1.41,2.67.77,1.36,1.57,2.7,2.34,4.06.45.79.85,1.61,1.3,2.41.59,1.06,1.2,2.11,1.8,3.16,1.22,2.13,2.44,4.26,3.64,6.4a11.84,11.84,0,0,1,1.32,2.7,3.31,3.31,0,0,1-1.5,3.85c-1.15.74-2.25,1.55-3.39,2.3-.75.5-1.52,1-2.32,1.41-1.41.77-2.84,1.51-4.28,2.24a5.32,5.32,0,0,1-1.2.33Z" transform="translate(-15.03 -13.91)"/><path class="cls-2" d="M51.6,114.66c-6.57,0-11.62,0-16.67,0a19.76,19.76,0,0,1-3.91-.43,2.88,2.88,0,0,1-2.22-2.43,7.74,7.74,0,0,1-.13-2.67c.32-2.36.74-4.7,1.17-7,.36-2,.68-4,1.2-5.95.34-1.25.84-1.88,2.39-1.73a30.48,30.48,0,0,1,4.56.72c1.93.48,3.81,1.15,5.72,1.73l6.43,1.92L56,100.49c.92.28,1.84.57,2.76.82l7.49,2c.93.25,1.84.55,2.78.79,1.38.35,2.77.65,4.16,1,1.17.28,2.34.57,3.5.89a21.32,21.32,0,0,1,2.26.74,1.22,1.22,0,0,1,.88,1.32c-.08.59-.31,1.16-.4,1.75-.14.84-.23,1.69-.31,2.53s-.43,1.4-1.37,1.53a38.48,38.48,0,0,1-4,.36c-2.1.08-4.21,0-6.32.08Z" transform="translate(-15.03 -13.91)"/><path class="cls-2" d="M192.43,158c-.37.86-.68,1.66-1.07,2.43-.54,1.05-1.14,2.08-1.72,3.13-.79,1.44-1.56,2.9-2.38,4.33a11.68,11.68,0,0,1-1.39,2,2.77,2.77,0,0,1-4,.16c-1-.85-2.12-1.58-3.16-2.4-1.36-1.06-2.69-2.16-4-3.25s-2.41-2-3.59-3-2.57-2.23-3.88-3.33c-.86-.72-1.78-1.39-2.65-2.1-1-.84-2-1.7-3.07-2.53s-2.29-1.81-3.43-2.73-2.21-1.83-3.33-2.74c-.83-.69-1.7-1.34-2.52-2-1.29-1.11-2.55-2.26-3.82-3.39-.89-.78-1.82-1.5-2.67-2.32-1.07-1-2.09-2.15-3.1-3.25-.6-.65-.17-1.33.19-1.88a10.61,10.61,0,0,1,1.24-1.59c.27-.28.73-.63,1.05-.58a17.69,17.69,0,0,1,2.42.65c.08,0,.16.09.24.12,1.28.5,2.58,1,3.83,1.51,1.48.68,2.92,1.47,4.38,2.2.94.48,1.9.92,2.82,1.42,1.27.69,2.51,1.44,3.78,2.13.92.5,1.87.94,2.8,1.43,1.39.73,2.76,1.5,4.16,2.21,1.08.53,2.2,1,3.29,1.48,1.61.76,3.21,1.55,4.82,2.3,1.13.52,2.3,1,3.43,1.49,1.66.77,3.31,1.58,5,2.37,1.44.7,2.91,1.34,4.31,2.1a3.16,3.16,0,0,1,1.13,1.22A22.3,22.3,0,0,1,192.43,158Z" transform="translate(-15.03 -13.91)"/><path class="cls-2" d="M104.33,148.85c-.3,1.65-.59,3.37-1,5.07-.31,1.47-.7,2.92-1,4.38-.65,2.69-1.28,5.38-1.93,8.07s-1.26,5.15-1.89,7.73c-.3,1.23-.59,2.46-.89,3.69s-.57,2.31-.86,3.47c-.65,2.62-1.31,5.23-2,7.85-.35,1.46-.65,2.93-1,4.39s-.76,3-1.2,4.47a2.16,2.16,0,0,1-3,1.31c-1.72-.56-3.5-1-5.25-1.45-2-.59-4.09-1.14-6.09-1.83-1.28-.44-2.56-2.3-1.64-3.84a2.68,2.68,0,0,0,.22-.82,13.2,13.2,0,0,1,1.78-4.18c.41-.68.77-1.4,1.12-2.11.8-1.64,1.58-3.29,2.38-4.93q1.35-2.81,2.73-5.59c.63-1.28,1.26-2.55,1.92-3.81.84-1.62,1.72-3.21,2.56-4.82.74-1.44,1.43-2.9,2.16-4.34.92-1.82,1.83-3.64,2.78-5.44.81-1.53,1.66-3,2.48-4.56s1.52-2.85,2.31-4.26a4.31,4.31,0,0,1,.84-1,.68.68,0,0,1,.61,0c1,.43,2,.94,3,1.36C104.42,148,104.43,147.92,104.33,148.85Z" transform="translate(-15.03 -13.91)"/><path class="cls-2" d="M112.21,67.94c0,2.66,0,6.92,0,11.18,0,1.95-.09,2-2.08,2.16a7.17,7.17,0,0,0-1.18.27c-.8.23-1.29,0-1.54-.9-.44-1.53-.85-3.08-1.19-4.63-.41-1.86-.73-3.74-1.1-5.6-.28-1.4-.59-2.8-.88-4.2s-.57-2.9-.88-4.35-.66-3-1-4.47q-1-4.12-1.94-8.25c-.26-1.11-.53-2.23-.79-3.34L98.52,41c-.28-1.21-.5-2.44-.85-3.63-.9-3.08-1.42-6.23-2-9.37a4.63,4.63,0,0,1,.79-3.63,4.43,4.43,0,0,1,3.31-1.85c1.85-.26,3.66-.76,5.48-1.15.62-.12,1.23-.24,1.85-.34a2.15,2.15,0,0,1,2.6,1.84,56.69,56.69,0,0,1,.89,6.33c.38,7.46.63,14.93.94,22.39C111.69,56.51,111.92,61.43,112.21,67.94Z" transform="translate(-15.03 -13.91)"/><path class="cls-2" d="M77.15,42.06A3.91,3.91,0,0,1,79.66,39c1.31-.35,2.65-.6,4-1,1.57-.44,3.11-1,4.7-1.4a5,5,0,0,1,4.54.86,4.45,4.45,0,0,1,1,2c.56,1.79,1,3.61,1.55,5.41.31,1.08.64,2.15,1,3.23.53,1.87,1.09,3.72,1.59,5.6.46,1.7.84,3.42,1.27,5.12.62,2.46,1.26,4.91,1.9,7.35s1.3,4.7,1.92,7.05c.67,2.56,1.31,5.12,2,7.68a1.89,1.89,0,0,1-1,1.65c-1.07.37-2.13.74-3.21,1.08a1.48,1.48,0,0,1-2.1-.78c-.66-1.11-1.3-2.22-1.89-3.36-1-2-2-4-3.06-6.07C92.9,71.73,92,70,91.11,68.28S89.22,64.79,88.29,63s-2-3.77-3-5.65c-.59-1.14-1.15-2.29-1.76-3.42-1-1.82-2-3.63-3-5.44-.88-1.6-1.78-3.18-2.64-4.79C77.62,43.2,77.4,42.62,77.15,42.06Z" transform="translate(-15.03 -13.91)"/><path class="cls-2" d="M178.72,43.43a6.65,6.65,0,0,1-1.88,4.93c-.84.93-1.61,1.91-2.46,2.82-.49.53-1.12.94-1.65,1.43-1.24,1.15-2.46,2.31-3.68,3.48s-2.27,2.2-3.39,3.32-2.43,2.45-3.64,3.69-2.15,2.22-3.21,3.34c-.72.77-1.39,1.58-2.11,2.35s-1.64,1.62-2.44,2.45c-1.18,1.23-2.32,2.49-3.5,3.73-.76.79-1.55,1.56-2.31,2.34-.48.49-.92,1-1.39,1.5s-.81.79-1.21,1.19c-1.16,1.18-2.32,2.37-3.49,3.53-.8.8-1.63,1.56-2.44,2.35s-1.45,1.4-2.14,2.13a1.6,1.6,0,0,1-2.56-.09.49.49,0,0,1-.07-.41,19.56,19.56,0,0,1,1-3.4,17.36,17.36,0,0,1,1.92-2.68c.9-1.23,1.78-2.47,2.7-3.69.76-1,1.59-2,2.34-3s1.41-2,2.1-3c.56-.81,1.13-1.61,1.66-2.44,1.17-1.79,2.28-3.6,3.47-5.38s2.28-3.3,3.44-4.94c1.4-2,2.78-4,4.23-5.94,1.15-1.57,2.43-3.05,3.57-4.62,1.33-1.82,2.53-3.72,3.87-5.52,1-1.38,2.18-2.68,3.3-4s2.06-2.3,3.09-3.45a5.52,5.52,0,0,1,2.94-1.65,2.33,2.33,0,0,1,2.51,1.67A29.64,29.64,0,0,1,178.72,43.43Z" transform="translate(-15.03 -13.91)"/><path class="cls-2" d="M152.17,120.05c2.29.22,4.58.41,6.87.65s4.64.53,7,.81c2.81.34,5.62.67,8.42,1,2.15.27,4.3.57,6.44.85s4.39.59,6.59.86c2.66.34,5.33.6,8,1a18.35,18.35,0,0,1,3.59.91c1.27.47,2.38,2.09,1.54,3.51a8.89,8.89,0,0,0-.45,1.49c-.64,1.72-1.29,3.45-2,5.16a2.92,2.92,0,0,1-3.54,1.62c-2.11-.51-4.18-1.15-6.26-1.75-1.79-.51-3.58-1-5.36-1.56s-3.69-1.11-5.52-1.7c-2.55-.81-5.07-1.68-7.62-2.49-1.43-.45-2.88-.81-4.32-1.22l-6.39-1.86c-2-.59-4.08-1.13-6.08-1.8a42.34,42.34,0,0,1-4.23-1.76,1.19,1.19,0,0,1-.6-1.49c.42-2,1.32-1.94,2.78-2.18a7.72,7.72,0,0,1,1.18,0Z" transform="translate(-15.03 -13.91)"/><path class="cls-2" d="M149.63,34.32c1.16,0,1.6.88,2,1.58a20.46,20.46,0,0,0,3.87,4.88,8.43,8.43,0,0,1,2.68,3.55,1.38,1.38,0,0,1,.08.69,10.32,10.32,0,0,1-2.14,4.14c-.55.58-.95,1.3-1.45,1.94-.68.89-1.38,1.76-2.08,2.64-.46.59-.93,1.17-1.36,1.77-1.29,1.82-2.6,3.63-3.84,5.48-.79,1.16-1.46,2.4-2.21,3.58-1.16,1.82-2.32,3.63-3.51,5.42s-2.58,3.73-3.85,5.61c-.75,1.1-1.44,2.24-2.18,3.35-1.1,1.64-2.23,3.27-3.34,4.91a3.18,3.18,0,0,0-.25.43,1,1,0,0,1-1.44.55,14.05,14.05,0,0,1-1.75-1,.73.73,0,0,1-.24-.64c.56-1.51,1.16-3,1.77-4.49s1.32-3.19,2-4.79,1.21-2.93,1.84-4.39c.75-1.73,1.56-3.43,2.29-5.17.51-1.21.93-2.45,1.39-3.68l2-5.17c.64-1.68,1.31-3.35,1.92-5,.68-1.89,1.32-3.79,2-5.69s1.12-3.57,1.74-5.34a12.75,12.75,0,0,1,3.05-4.73C148.76,34.5,149.25,34.46,149.63,34.32Z" transform="translate(-15.03 -13.91)"/><path class="cls-2" d="M26.77,143.91c0-.24-.05-.47-.06-.71a2.92,2.92,0,0,1,1.78-2.73,25.58,25.58,0,0,1,4.93-2.18c1.6-.5,3.14-1.2,4.74-1.71,2.2-.7,4.44-1.3,6.66-2,1.88-.54,3.74-1.11,5.61-1.65,1.21-.36,2.42-.7,3.62-1,2.2-.63,4.41-1.23,6.6-1.88,2-.58,4-1.22,5.94-1.81s3.73-1.13,5.6-1.65c1.47-.4,3-.74,4.45-1.1.91-.22,1.82-.47,2.74-.65s1.17.08,1.45.86a9.06,9.06,0,0,1,.62,1.84,1.32,1.32,0,0,1-.62,1c-1.33.7-2.71,1.31-4.09,1.91-1.12.5-2.26.94-3.39,1.4-.27.11-.56.17-.83.27-1.84.71-3.68,1.41-5.5,2.15-1.35.55-2.67,1.16-4,1.75L56.54,139c-1.27.56-2.54,1.1-3.81,1.64l-4.5,1.91c-2.22.95-4.44,1.89-6.65,2.85-2,.87-4,1.75-6,2.63-1.61.71-3.21,1.46-4.83,2.16-1,.44-2.8-.64-3.2-1.92-.22-.71-.43-1.43-.58-2.16s-.18-1.45-.26-2.18Z" transform="translate(-15.03 -13.91)"/><path class="cls-2" d="M60.75,35.77c.36-2,.7-3.88,1-5.76.19-1.17.32-2.34.51-3.51a19.7,19.7,0,0,1,.45-2c.15-.57.52-.69,1-.28a5,5,0,0,1,1,1.21c.47.86.86,1.77,1.3,2.65.8,1.6,1.62,3.19,2.42,4.8.47.94.87,1.92,1.35,2.85.75,1.42,1.55,2.81,2.3,4.23.52,1,1,1.92,1.5,2.87.77,1.41,1.59,2.81,2.36,4.22.47.86.89,1.76,1.36,2.62.79,1.42,1.63,2.82,2.42,4.25.52,1,1,1.93,1.47,2.88.77,1.41,1.58,2.8,2.36,4.2.32.57.63,1.14.94,1.72.77,1.42,1.51,2.86,2.3,4.28s1.59,2.74,2.34,4.12c.54,1,1,2,1.51,3,.75,1.42,1.57,2.81,2.31,4.23.5,1,.92,2,1.39,3s.91,1.89,1.34,2.84A5.31,5.31,0,0,1,96,85.42c.1.51-.18.82-.67,1a1,1,0,0,1-1.26-.23c-1-1.3-2-2.62-3-3.94-.79-1.06-1.6-2.13-2.36-3.22-.51-.73-.93-1.52-1.44-2.25-.75-1.06-1.56-2.09-2.32-3.15-.48-.67-.92-1.37-1.39-2-.77-1.08-1.57-2.15-2.32-3.24S79.77,66.12,79,65q-1.36-2-2.77-4c-.89-1.26-1.82-2.49-2.7-3.75-.76-1.1-1.44-2.24-2.2-3.34-1.08-1.58-2.21-3.12-3.3-4.7-.54-.77-1-1.59-1.52-2.38-.75-1.18-1.54-2.33-2.27-3.52-.56-.9-1-1.84-1.57-2.75a13.44,13.44,0,0,1-1.15-1.91C61.17,37.71,61,36.69,60.75,35.77Z" transform="translate(-15.03 -13.91)"/><path class="cls-2" d="M153.49,112.25c-1,0-2.05.12-3.08.16s-1.08-.07-1.2-.94-.19-1.6-.24-2.4a1.59,1.59,0,0,1,1.13-1.71c1-.34,2.06-.66,3.11-.91,2.95-.69,5.9-1.33,8.85-2l3.68-.83c1.56-.34,3.12-.67,4.68-1l3.68-.86,4.17-1c2.6-.58,5.19-1.18,7.79-1.74,1.43-.3,2.87-.53,4.3-.8a5,5,0,0,1,4.29,1.26,2.43,2.43,0,0,1,.88,1.8c.09,1.27.18,2.55.3,3.82a11,11,0,0,1,.25,1.58,10.7,10.7,0,0,1-.44,2.24,1,1,0,0,1-.64.49,8.6,8.6,0,0,1-1.52.24c-2.48.21-5,.42-7.45.59-2.13.14-4.26.2-6.39.32-5.45.32-10.9.64-16.35,1-3.27.21-6.53.5-9.79.75Z" transform="translate(-15.03 -13.91)"/><path class="cls-2" d="M74.16,117.4c1.27.07,2.3.06,3.32.19,1.39.18,2.44,2.26,1.68,3.41a2.93,2.93,0,0,1-1.42.87q-2.37.78-4.79,1.44c-1.37.37-2.77.66-4.15,1-2.44.62-4.87,1.23-7.3,1.89-2,.54-3.93,1.13-5.89,1.7-1,.3-2.08.61-3.13.89-2.42.67-4.86,1.24-7.25,2-2,.63-4,.29-6,.16a3,3,0,0,1-2.44-1.19,2.66,2.66,0,0,1-.41-.73c-.4-1.91-.74-3.83-1.18-5.72a3.2,3.2,0,0,1,.25-2.22,2.11,2.11,0,0,1,2-1c4.16-.36,8.33-.71,12.49-1,4.51-.32,9-.56,13.54-.87C67.08,118,70.73,117.67,74.16,117.4Z" transform="translate(-15.03 -13.91)"/><path class="cls-2" d="M92.08,88.52c-.64.5-1.24,1-1.82,1.44a2,2,0,0,1-2.49-.29c-1.64-1.69-3.26-3.39-4.89-5.08-1.19-1.22-2.41-2.43-3.59-3.66-1-1.07-2-2.16-3-3.23-1.18-1.25-2.37-2.5-3.58-3.73-1.44-1.48-2.89-3-4.37-4.4-1.09-1.07-2.24-2.08-3.33-3.15s-2.11-2.19-3.2-3.26c-.75-.74-1.57-1.41-2.32-2.15s-1.61-1.7-2.4-2.56c-.34-.37-.65-.74-1-1.12-1.41-1.62-.93-2.69.44-3.74a32.1,32.1,0,0,1,3.66-2.41,14.39,14.39,0,0,1,2.27-.87c1-.35,1.55.3,2.19.77a14.38,14.38,0,0,1,3.27,3.73c1.37,2.06,2.81,4.08,4.21,6.12.77,1.12,1.51,2.26,2.31,3.36s1.52,2,2.27,2.95,1.55,2.09,2.33,3.13l2.55,3.34c.71.93,1.42,1.88,2.14,2.81,1,1.22,1.93,2.41,2.86,3.64,1,1.41,2,2.89,3.11,4.26a9.56,9.56,0,0,1,2,3.66C91.71,88.16,91.81,88.22,92.08,88.52Z" transform="translate(-15.03 -13.91)"/><path class="cls-2" d="M176.84,172.88a3.61,3.61,0,0,1-1,2.27c-1.58,1.43-3.14,2.89-4.73,4.31a1.72,1.72,0,0,1-2.18-.14,20.35,20.35,0,0,1-3.06-3.83c-.79-1-1.64-2-2.44-3.07-1.11-1.42-2.19-2.87-3.32-4.27-.8-1-1.68-2-2.49-3-1.43-1.76-2.82-3.55-4.27-5.3s-3.09-3.66-4.66-5.47c-1.15-1.33-2.32-2.64-3.5-4s-2.33-2.56-3.47-3.86-2.28-2.68-3.43-4c-.14-.16-.34-.26-.48-.41a1.3,1.3,0,0,1,.13-2.11,4.25,4.25,0,0,0,.78-.74,1,1,0,0,1,1.39-.33,19.44,19.44,0,0,1,2.32,1.83c.82.73,1.58,1.52,2.38,2.28s1.66,1.55,2.49,2.31,1.54,1.43,2.33,2.13c1,.87,1.94,1.72,2.92,2.57s1.8,1.52,2.69,2.29,1.67,1.52,2.53,2.26c.6.52,1.26,1,1.86,1.53,1.19,1,2.34,2.11,3.52,3.16.85.75,1.73,1.46,2.57,2.21s1.57,1.48,2.36,2.21,1.51,1.35,2.27,2c1,.9,2.09,1.76,3.1,2.68.84.77,1.61,1.6,2.42,2.38A3,3,0,0,1,176.84,172.88Z" transform="translate(-15.03 -13.91)"/><path class="cls-2" d="M121.53,80.91c.39-2.1.78-4.21,1.18-6.31.37-1.94.77-3.87,1.13-5.81.31-1.68.58-3.37.88-5.06.34-2,.69-3.94,1-5.91q.47-2.72.89-5.43c.34-2.18.64-4.37,1-6.55a45,45,0,0,1,.93-4.62,4.06,4.06,0,0,1,1.18-1.85c.67-.6,1.54-.2,2.31,0,.58.15,1.13.38,1.71.54,1.44.41,2.89.79,4.34,1.18a2.4,2.4,0,0,1,1.55,2.59,9.79,9.79,0,0,1-.65,2c0,.09-.07.17-.1.26-.5,1.52-1,3-1.51,4.55-.64,1.95-1.26,3.91-1.91,5.86-.6,1.77-1.18,3.54-1.84,5.29-.74,1.94-1.55,3.85-2.33,5.77-.29.71-.61,1.41-.88,2.13-.49,1.33-.95,2.67-1.45,4-.67,1.81-1.33,3.61-2.06,5.39a27.76,27.76,0,0,1-1.38,2.72,1.72,1.72,0,0,1-2.23.72,4.38,4.38,0,0,0-.72-.15C121.58,82,121.55,82,121.53,80.91Z" transform="translate(-15.03 -13.91)"/><path class="cls-2" d="M110.85,153.33c0,1.07.05,2.13,0,3.19-.28,4.77-.64,9.53-.88,14.29-.33,6.61-.57,13.22-.9,19.83a19.43,19.43,0,0,1-.58,3.38c-.15.66-1.15,1.07-1.9,1-1.44-.21-2.89-.38-4.34-.55-.73-.08-1.47-.1-2.2-.18A2.07,2.07,0,0,1,98,191.54c.4-2.29.84-4.58,1.3-6.86.26-1.23.58-2.46.87-3.69.35-1.46.7-2.92,1.06-4.37.28-1.19.59-2.37.86-3.55.36-1.63.68-3.26,1-4.89.27-1.23.58-2.46.84-3.7.66-3.13,1.3-6.25,1.94-9.38.3-1.45.56-2.91.87-4.36.12-.55.31-1.08.48-1.61a.7.7,0,0,1,.89-.52c.58.08,1.17.13,1.75.2a1.19,1.19,0,0,1,1.17,1.26c0,1.08,0,2.17,0,3.26Z" transform="translate(-15.03 -13.91)"/><path class="cls-2" d="M119.9,31.4c1,0,2,0,3,0,1.21,0,1.77.51,1.78,1.69s-.07,2.6-.15,3.89c-.11,1.63-.24,3.26-.42,4.88-.24,2.27-.54,4.54-.82,6.81-.36,3-.71,6-1.11,9-.26,2-.59,4-.89,6-.33,2.26-.68,4.52-1,6.78-.31,2.1-.57,4.2-.92,6.29-.21,1.24-.56,2.46-.83,3.7a1,1,0,0,1-1.18.8c-.58,0-1.13-.19-1.2-.9,0-.49-.1-1-.11-1.48-.16-9.51-.27-19-.49-28.54-.1-4.09-.47-8.16-.65-12.25a44.26,44.26,0,0,1,.06-5c.08-1.19.84-1.71,2.06-1.71h2.87Z" transform="translate(-15.03 -13.91)"/><path class="cls-2" d="M127.56,195.12c-.87-.19-1.8-.36-2.7-.6a1.58,1.58,0,0,1-1.06-1.39,34.4,34.4,0,0,1-.56-3.64c-.38-4-.68-7.94-1.07-11.91-.24-2.48-.55-5-.87-7.44s-.67-4.85-1-7.27c-.29-2-.64-4-.88-5.93-.29-2.36-.49-4.73-.75-7.09-.08-.73.17-1.11,1-1.12.59,0,1.17-.14,1.76-.17a1,1,0,0,1,1.15.74c.36,1.53.77,3,1.1,4.59.39,1.81.7,3.65,1.08,5.47.31,1.49.65,3,1,4.45.62,2.5,1.27,5,1.92,7.48.27,1,.58,2.07.85,3.11.37,1.39.69,2.78,1.07,4.16.56,2.08,1.19,4.14,1.73,6.23.4,1.52.73,3.05,1.06,4.59a29.36,29.36,0,0,1,.54,3.09,1.73,1.73,0,0,1-1.4,1.92C130.23,194.68,128.94,194.87,127.56,195.12Z" transform="translate(-15.03 -13.91)"/><path class="cls-2" d="M163.15,179.36c.24,1-.59,1.39-1.15,1.8a28.27,28.27,0,0,1-3.46,2.11,1.5,1.5,0,0,1-1.21,0,6.69,6.69,0,0,1-2.51-2.3c-.81-1.22-1.64-2.41-2.43-3.64-.56-.86-1.06-1.76-1.6-2.64-.77-1.25-1.57-2.48-2.33-3.74-.52-.86-1-1.75-1.52-2.62-.78-1.29-1.57-2.58-2.35-3.88-.4-.66-.78-1.33-1.17-2-.9-1.53-1.82-3-2.71-4.59s-1.59-2.86-2.4-4.28q-1.4-2.38-2.81-4.76c-.76-1.28-1.55-2.55-2.3-3.84-.48-.83-.34-1.18.52-1.68.37-.21.71-.47,1.06-.7a.61.61,0,0,1,1,.16c.51.72,1.09,1.41,1.63,2.11,1,1.31,2.07,2.61,3.09,3.93s2.1,2.81,3.19,4.19c1.22,1.55,2.49,3.06,3.74,4.59,1.1,1.36,2.2,2.72,3.27,4.1,1.47,1.89,2.88,3.84,4.37,5.71,1.36,1.7,2.82,3.32,4.19,5a32.84,32.84,0,0,1,2.86,3.72,18.71,18.71,0,0,1,1.26,3.25Z" transform="translate(-15.03 -13.91)"/><path class="cls-2" d="M87.55,92.92a7.3,7.3,0,0,1-1.31,1.5c-.25.16-.89-.06-1.26-.27-1.29-.75-2.56-1.55-3.81-2.37S78.55,90,77.23,89.12c-1.88-1.25-3.78-2.45-5.64-3.71-1.07-.73-2.06-1.58-3.12-2.32s-2.25-1.5-3.36-2.27S63,79.3,62,78.54,59.81,77,58.71,76.22c-1.33-.91-2.75-1.7-4-2.69a40.75,40.75,0,0,1-3.4-3.17,7.73,7.73,0,0,1-1.51-1.73,1.54,1.54,0,0,1,.58-2.21c1.41-1.07,2.86-2.09,4.29-3.12.13-.09.34-.19.45-.15,1,.41,2.15.48,3,1.31,1.23,1.23,2.53,2.39,3.82,3.57.81.75,1.66,1.46,2.48,2.2s1.6,1.52,2.41,2.27,1.63,1.42,2.41,2.17,1.51,1.54,2.29,2.29,1.56,1.43,2.34,2.15l2.33,2.16c.81.75,1.62,1.49,2.42,2.25,1.16,1.11,2.33,2.22,3.48,3.34.79.77,1.58,1.53,2.33,2.34s1.48,1.68,2.21,2.54C86.91,92.08,87.18,92.44,87.55,92.92Z" transform="translate(-15.03 -13.91)"/><path class="cls-2" d="M184.21,72.85a11.38,11.38,0,0,1-1,1.6,4.68,4.68,0,0,1-1.3,1c-1.8,1-3.62,1.91-5.43,2.87s-3.62,1.93-5.41,2.92c-1.62.9-3.22,1.84-4.83,2.77-2.13,1.23-4.27,2.46-6.4,3.71-1.59.94-3.18,1.9-4.76,2.86s-3.32,2.08-5,3.1-3.1,1.83-4.66,2.73a2.29,2.29,0,0,1-.93.39,1.12,1.12,0,0,1-.83-.32c-.39-.43-.61-1-1-1.42a.62.62,0,0,1,0-1c.72-.66,1.51-1.26,2.28-1.86s1.63-1.22,2.45-1.82,1.75-1.22,2.61-1.85c1.26-.92,2.51-1.86,3.76-2.8,1.61-1.23,3.19-2.5,4.83-3.7C160.05,81,161.55,80,163,79c1.83-1.25,3.7-2.46,5.52-3.74,1.62-1.14,3.18-2.36,4.78-3.53a46.17,46.17,0,0,0,3.91-2.81c1.45-1.31,3-.69,4.56-.54.4,0,.87.61,1.08,1A28.38,28.38,0,0,1,184,72.25a2,2,0,0,1,.06.49Z" transform="translate(-15.03 -13.91)"/><path class="cls-2" d="M191.74,122.1c-2-.11-4.07-.18-6.1-.34-2.94-.24-5.88-.51-8.82-.83-2.28-.24-4.54-.56-6.82-.85-2.48-.32-5-.67-7.46-1s-5.28-.58-7.92-.9c-1.38-.16-2.74-.41-4.11-.64-1-.16-1.6-1.13-1-1.88.27-.37,1.06-.49,1.63-.52,3.26-.15,6.52-.28,9.78-.34,7.18-.12,14.36-.16,21.55-.31,3.39-.07,6.79-.28,10.18-.47a3.69,3.69,0,0,1,2.65.73,2.87,2.87,0,0,1,.79,1.75,8.6,8.6,0,0,1-.33,3.89,2.62,2.62,0,0,1-2.44,1.65h-1.54Z" transform="translate(-15.03 -13.91)"/><path class="cls-2" d="M182.88,146.41c-1-.32-2.07-.6-3.06-1-1.21-.47-2.38-1-3.57-1.57L172.07,142l-3.91-1.78-5.69-2.69c-1.34-.64-2.68-1.28-4-1.89s-2.87-1.2-4.27-1.87a51.09,51.09,0,0,1-4.86-2.56c-1-.62-2.21-1.2-2.47-2.5a4.25,4.25,0,0,1,.16-1.57c0-.1.32-.2.49-.2a9,9,0,0,1,1.46.14c.64.11,1.27.25,1.9.41,1.79.47,3.58.89,5.35,1.43s3.3,1.15,5,1.73c1.86.65,3.73,1.27,5.58,1.94s4,1.55,6,2.27,4.33,1.44,6.48,2.21a44.41,44.41,0,0,1,4.53,1.79,4.94,4.94,0,0,1,2.38,2.86,3,3,0,0,1,.38,1.26,8.15,8.15,0,0,1-.72,2.54c-.17.33-.91.43-1.41.56a12.34,12.34,0,0,1-1.39.14Z" transform="translate(-15.03 -13.91)"/><path class="cls-2" d="M119,187.21c0,2.33,0,4.39,0,6.45a12.18,12.18,0,0,1-.3,2.24,2.3,2.3,0,0,1-2.23,1.72,3.31,3.31,0,0,1-2.64-.4,3.16,3.16,0,0,1-1.26-2.47c-.1-1.79,0-3.6,0-5.4q.27-11.16.57-22.34c.1-4.26.14-8.52.29-12.78A37.55,37.55,0,0,1,114,150c.1-.65.55-.79,1.16-.81s1,.16,1.1.76c.24,1.62.51,3.24.65,4.88.18,2.14.22,4.3.36,6.45.24,3.41.53,6.82.76,10.24C118.33,176.86,118.65,182.17,119,187.21Z" transform="translate(-15.03 -13.91)"/><path class="cls-2" d="M177.34,63.68c-.19.29-.28.58-.49.72-.95.7-1.95,1.34-2.91,2s-2.17,1.58-3.27,2.36-2.19,1.49-3.26,2.28-1.94,1.56-2.92,2.33l-2.85,2.23c-1,.8-2,1.63-3,2.43-.82.64-1.66,1.25-2.47,1.89l-3.35,2.63c-1,.76-2,1.47-2.94,2.24s-1.84,1.6-2.8,2.35c-1.42,1.11-2.88,2.17-4.32,3.24-.59.44-1.17.88-1.77,1.29-.37.25-.79.48-1.18.07a1.32,1.32,0,0,1,.13-1.52c1.46-1.49,2.94-3,4.38-4.47,1.07-1.12,2.08-2.31,3.16-3.43.73-.76,1.56-1.43,2.31-2.17s1.54-1.57,2.32-2.35,1.58-1.54,2.35-2.33,1.33-1.45,2-2.16c.82-.88,1.67-1.74,2.5-2.61,1.2-1.26,2.4-2.53,3.61-3.79.76-.79,1.56-1.55,2.31-2.35s1.42-1.51,2.06-2.31a15.25,15.25,0,0,1,3.78-3.78c1.52-.92,3-.81,4,1,.42.77,1,1.45,1.49,2.2S177,63,177.34,63.68Z" transform="translate(-15.03 -13.91)"/><path class="cls-2" d="M66.68,177.39A4.38,4.38,0,0,1,63,175.46c-.71-1-.22-1.91.31-2.7a33.09,33.09,0,0,1,2.62-3.21c.81-.94,1.68-1.82,2.51-2.75,1.1-1.25,2.17-2.52,3.28-3.76.75-.84,1.56-1.63,2.31-2.46s1.5-1.74,2.26-2.6S78,156,78.92,155c2.08-2.29,4.18-4.59,6.26-6.89,1.17-1.28,2.31-2.59,3.48-3.88.8-.88,1.63-1.74,2.45-2.61.35-.36.79-.41,1.07,0s1.2.51.76,1.29a18.36,18.36,0,0,1-1.14,1.85c-.84,1.12-1.75,2.19-2.6,3.31s-1.6,2.17-2.38,3.28c-.43.61-.82,1.25-1.24,1.87-.65,1-1.32,1.93-2,2.89s-1.28,1.85-1.93,2.78l-4.33,6.2c-.76,1.1-1.49,2.21-2.26,3.31s-1.57,2.14-2.33,3.23c-.51.71-.93,1.47-1.46,2.16a23.46,23.46,0,0,1-2.52,2.93,6.34,6.34,0,0,1-2,.84Z" transform="translate(-15.03 -13.91)"/><path class="cls-2" d="M45.35,154.15a3,3,0,0,1-2.18-1.08A7.05,7.05,0,0,1,42,151.28c-.39-.78,0-1.27.64-1.84a23.62,23.62,0,0,1,4.25-2.58c1.46-.74,3-1.43,4.45-2.12,1.93-.89,3.87-1.74,5.8-2.63l6.18-2.84,6-2.74c1.56-.72,3.09-1.5,4.67-2.18,1.87-.83,3.78-1.58,5.67-2.37.8-.34,1.58-.7,2.36-1.06.35-.17.71-.39,1,.06s.93.76.17,1.3c-.92.64-1.79,1.34-2.72,2-1.14.77-2.3,1.51-3.49,2.21-1.35.79-2.75,1.51-4.1,2.3-1.19.69-2.33,1.45-3.5,2.16-.64.4-1.31.77-2,1.16l-4.59,2.72-5.34,3.15c-1.57.93-3.13,1.89-4.72,2.8-1.13.65-2.29,1.25-3.45,1.85a21.62,21.62,0,0,1-2.07,1C46.58,153.79,46,154,45.35,154.15Z" transform="translate(-15.03 -13.91)"/><path class="cls-2" d="M73.94,185.29c-.87-.25-1.78-.45-2.65-.78a1.59,1.59,0,0,1-.89-2.16,20.06,20.06,0,0,1,1.3-2.24c.46-.75,1-1.48,1.45-2.22.95-1.48,1.86-3,2.84-4.43s1.84-2.59,2.73-3.9,1.61-2.49,2.42-3.72,1.62-2.39,2.41-3.6,1.55-2.51,2.36-3.75,1.56-2.32,2.34-3.48,1.44-2.19,2.17-3.28c.84-1.26,1.69-2.52,2.52-3.78.49-.75,1-1.51,1.43-2.26a10.33,10.33,0,0,1,.9-1.33.78.78,0,0,1,.7-.19,3.85,3.85,0,0,1,.8.9.57.57,0,0,1,0,.42c-.41,1-.81,2.07-1.26,3.09-.31.68-.72,1.32-1.08,2-.67,1.19-1.35,2.36-2,3.56-.77,1.42-1.5,2.86-2.26,4.28-1,1.84-2,3.67-2.94,5.49-.87,1.63-1.77,3.24-2.64,4.86l-2.9,5.38-1.93,3.57c-.63,1.17-1.2,2.37-1.87,3.52a12.32,12.32,0,0,1-2.75,3.67A4.07,4.07,0,0,1,73.94,185.29Z" transform="translate(-15.03 -13.91)"/></g></svg>