<svg id="Layer_1" data-name="Layer 1" xmlns="http://www.w3.org/2000/svg" viewBox="0 0 1382.64 1376.69"><defs><style>.cls-1{fill:white;fill-rule:evenodd;}</style></defs><title>IMAGE ONLY LOGO [Converted]</title><path class="cls-1" d="M477.15,795.18a16.72,16.72,0,0,0-2.23-4.25c-1.89-2.32-4.6-3.78-8.19-4.76-7.71-2.1-18.39-1.57-19.44-1.49-4.56.37-8.36.09-12.91.45-12,.93-23.38,1.42-35.34,2.42-6.61.55-23.6,1.62-35.59,2.43-12.68.86-28.36,1.91-37.92,2.51s-48.72,2.86-60.37,3.77c-13.78,1.09-27.2,2.43-41,3.58-9.93.83-25.06,2.57-29.9,2.48-1,0-22.33,1.92-27.58,2.39a27.43,27.43,0,0,0-9.21,2.72,16.15,16.15,0,0,0-3.78,2.77,15.38,15.38,0,0,0-3.65,6.13c-1.75,5.26-.91,10.45.1,17,.34,2.17.76,5,1,6.45q.59,3.28,1.28,6.68c1.43,6.91,4,18.5,4.08,19.55a28,28,0,0,0,4.07,12.34,22.68,22.68,0,0,0,5.91,6c5.5,3.84,11.48,4.33,14.38,4.55,6.54.48,15.26,1,18.66,1,4.34,0,8.67.27,12.41.05,10.75-.66,22.89-4.19,26.69-5.49,10.2-3.48,19.18-5.11,29.43-8.46,7.7-2.52,37.71-11.26,47.32-14.13,17.13-5.1,37.47-11.14,50.66-14.71,14.14-3.84,31.69-8.54,41.49-10.81,6.45-1.48,12.48-3,18.7-4.72,6.58-1.86,16.34-5.06,24.8-7.83l10.73-3.49c2.72-1,6.76-2.61,10.2-4,1.76-.69,4.48-1.72,6-4.3a9.08,9.08,0,0,0,1.17-3.4,10.86,10.86,0,0,0-.13-3.36c-.18-1.24-.21-2.34-.39-3.58A34.89,34.89,0,0,0,477.15,795.18Z" transform="translate(-53.03 -41.04)"/><path class="cls-1" d="M87.57,996.6c-.27-1.88-.56-7.05-.81-10.87-.18-2.76-.49-7.77,2.18-12.87a19.84,19.84,0,0,1,6-6.87c11.35-8.51,26.42-14.85,44.35-21.74,3.36-1.29,6.45-2.68,9.79-4,11.32-4.47,22-8.19,33.47-11.72,12.22-3.77,28.7-8.62,43.26-12.88,11.71-3.42,29.25-9,44.08-13.44,11.47-3.47,26.79-8,40.27-12,16.93-5,40.74-11.88,50.06-14.88,6.14-2,35.61-11.92,48.7-15.73,8.06-2.35,18.39-5.19,27.75-7.73,5.12-1.38,10.32-2.75,15.24-4,4.3-1.09,8.49-2,12.79-3.15,2.53-.65,4.83-1,7.34-1.71,1-.28,4-.79,6.26-1.15,3.33-.53,7.09-.92,9.25,1.43a6.62,6.62,0,0,1,1.36,2.58c.47,1.31,1,2.59,1.36,3.72,1,3.33,2.67,8,3.54,10a19.37,19.37,0,0,1,.82,2.57,9.88,9.88,0,0,1,.27,2.29c-.18,2.53-2.13,4.3-3.54,5.44a51.23,51.23,0,0,1-6.8,4.86c-3.08,1.4-11.28,6.2-18,8.29-10.73,3.37-26.36,10.67-40.81,16-11.1,4.11-32,13.18-48.7,20.6-18.22,8.07-45,21.2-62.85,29.46-14.25,6.6-43.82,19.29-66.12,29.18-17.1,7.59-39.47,17.73-59.31,26.6-12.75,5.7-27.07,12.15-37.82,17.17-3.11,1.45-7.25,3.32-9.25,4.29-5.75,2.76-12.78,5.44-16.33,7.43a27.51,27.51,0,0,1-10.61,3.44,20.65,20.65,0,0,1-11.42-2.29,22.65,22.65,0,0,1-9.53-10.59,27.33,27.33,0,0,1-1.63-4.57A222.27,222.27,0,0,1,87.57,996.6Z" transform="translate(-53.03 -41.04)"/><path class="cls-1" d="M217.2,1065.36a18.56,18.56,0,0,1-5.28-3.6,52.12,52.12,0,0,1-6.72-7.2c-5.23-7.08-6.86-13.29-6.24-15.6.88-3.29,3.34-5.18,5-6.48,3.91-3,9.05-7.19,10.8-8.16,4.45-2.48,8-5.06,12.48-7.44,6.66-3.52,21.11-11.58,29.28-15.6,15.27-7.51,32.82-15.47,49.68-23.28,20.37-9.44,42.44-19.91,59.52-28.56,11.62-5.88,29.07-13.76,43.68-20.64,8.43-4,16.95-7.95,25.2-11.76,9-4.16,18.69-8.59,26.88-12.24,6.11-2.72,14.2-6.37,18-7.92,3.17-1.29,6-2.34,8.88-3.84,2.36-1.24,4.58-2.14,7-3.36,2.2-1.12,4.06-1.21,6.48-1.92a3.67,3.67,0,0,1,4.56,1.44,13.38,13.38,0,0,1,1.2,1.92c.4.9,1.57,2.5,1.68,3.6.33,3.41-3.48,6.29-7.92,9.6-1.68,1.25-3.71,2.89-4.8,3.6-3.19,2.07-5.93,4.18-9.12,6.24-8.06,5.2-19.22,12.28-25.68,16.08-10.69,6.29-24.3,14.84-36.72,22.32q-26.7,16.08-53.76,32.88c-15.93,9.88-35.35,21.94-47,29.52-7,4.51-19.14,12.09-28.8,18.24-4.92,3.13-16.44,9.85-25,14.88-6.84,4-12.89,6.18-19.68,10.32a61.21,61.21,0,0,1-20.4,7.92,25.39,25.39,0,0,1-6.48.48A19.78,19.78,0,0,1,217.2,1065.36Z" transform="translate(-53.03 -41.04)"/><path class="cls-1" d="M547.4,950.27a13.89,13.89,0,0,0-3.84-6.46c-3.54-3.48-7.28-7.51-9.74-10.32-1.1-1.27-3.52-4.65-5.37-7.23-1.12-1.55-2.58-3.52-3.08-4.39-.82-1.45-1.71-2.44-2.56-3.87a5.79,5.79,0,0,0-2-2.07,5.24,5.24,0,0,0-1.53-.51c-3.91-.65-11.51,5-14.35,7-1.65,1.15-3.2,2-4.86,3.09-8.13,5.53-21.3,14.17-32,21.43-4.18,2.83-12.92,8.59-19.47,12.91-22.34,14.76-45,29.1-66.85,43.63-18.91,12.57-39.19,26.29-58.91,39.75s-43,29.48-57.37,40.27c-10.54,7.93-21,16.4-30.74,23-3.83,2.61-11.5,8.27-17.41,12.65-3.07,2.28-9.22,7.69-14.09,11.88a61.1,61.1,0,0,0-9.48,10.06c-1.7,2.35-2.76,4.55-4.35,7a20.17,20.17,0,0,0-3.33,7,18,18,0,0,0,0,8.26,55.52,55.52,0,0,0,5.12,12.91c2.75,4.46,6,9.92,7.94,12.39,9.13,11.69,20.42,19,32.53,30,5.79,5.24,25.94,20.9,32.79,26.07a16.36,16.36,0,0,0,7.94,3.36,16.55,16.55,0,0,0,9-1.81,36.78,36.78,0,0,0,9.48-7c4.46-4.93,8.75-7.54,13.32-12.39,4.95-5.27,19.06-19.62,25.1-26.59,10.52-12.16,32.51-36.08,49.43-54.47,13.55-14.73,27-28.57,40.47-43.37,12.79-14,25.18-28,37.65-42.34,5.06-5.82,22.47-26.08,28.43-32.78,8.28-9.33,17.45-19.88,24.33-27.11,3.17-3.32,17.9-18.86,20.49-21.43,3.54-3.49,5.92-6.84,9.48-10.32a55.22,55.22,0,0,0,5.63-7.23,15.43,15.43,0,0,0,2-4.39A13.12,13.12,0,0,0,547.4,950.27Z" transform="translate(-53.03 -41.04)"/><path class="cls-1" d="M580.24,976.38a3.7,3.7,0,0,0-1.69-1.49,20.59,20.59,0,0,1-2.17-1.74c-1.21-1-2.4-1.95-3.63-3a3.69,3.69,0,0,0-1.45-.74c-2.64-.58-5.32,2.6-6.28,3.72-3.58,4.19-7.19,7.15-10.63,11.67-1.4,1.85-4.29,5-6.52,7.7-4.47,5.39-11.89,13.82-18.12,20.86-9,10.11-17.86,19.44-26.82,29.54-4.72,5.32-13.64,15.78-20.54,23.84-7.17,8.37-16.21,18.93-21.5,25.08-7.88,9.15-15.74,18.21-23.68,27.31-10.54,11.63-20.71,23.15-30.92,35-8.49,9.84-16.56,20.77-23.92,28.3-8,8.18-15.13,18.82-20.3,24.83a66.45,66.45,0,0,0-6.52,11.42,14.28,14.28,0,0,0-1.45,8c.26,2,2.13,5.87,5.8,9.68a39.22,39.22,0,0,0,6,5.21A34.61,34.61,0,0,0,378,1247a50.73,50.73,0,0,0,5.07.75,26.69,26.69,0,0,0,7.25,0,19.43,19.43,0,0,0,8-3.72,58.16,58.16,0,0,0,10.15-9.69c6.39-8.76,21.46-30.23,26.82-39.23,2.65-4.44,10.53-15.78,16.19-24.08,7.89-11.59,15.81-22.65,23.67-34.26,6.72-9.92,15.81-24.22,23.92-36.5,8.32-12.59,16.64-24.61,24.89-37.25,5.33-8.17,11.4-17.42,15.94-24.08,6.35-9.3,14.23-20.7,18.61-26.07,2.73-3.36,5.34-6.68,8-10.43,1.6-2.27,2.95-4.46,4.59-6.7s3.67-5.3,4.59-6.46a23.11,23.11,0,0,0,4.83-10.67A3.44,3.44,0,0,0,580.24,976.38Z" transform="translate(-53.03 -41.04)"/><path class="cls-1" d="M605.86,992.78a15.53,15.53,0,0,0-3.33-2.27,3.16,3.16,0,0,0-1.35-.27,3.27,3.27,0,0,0-1.81.69,11.63,11.63,0,0,0-1.75,1.48,30.19,30.19,0,0,0-3.56,5c-1,2-2.15,3.37-3.25,5.29-1.61,2.79-4.73,7.59-7.21,11.53-5.79,9.18-11.14,18.23-17,27.38-5,7.94-11.9,18.14-18.1,27.36-8.57,12.75-22.61,35.57-34.16,54-13,20.81-29.56,47.39-38.56,60.75-10.89,16.15-22,32.38-31.56,47.76-5,8.13-10.86,17.71-14.43,24-1.49,2.65-2.9,5.18-4.43,7.7-2.25,3.72-5.16,8.39-6.58,10.27-2.26,3-3.67,6.1-5.63,9.25a13.13,13.13,0,0,0-2.28,7.67,20.89,20.89,0,0,0,1.26,4.66,18,18,0,0,0,2.17,4.19,11.91,11.91,0,0,0,4.66,3.52,35.63,35.63,0,0,0,8.6,2.37c1.41.26,7.38,1.47,10.46,2a12.5,12.5,0,0,0,5.64-.36,13.28,13.28,0,0,0,5.47-3.77c2.17-2.24,4.54-4.37,6.12-6.36a75.26,75.26,0,0,0,6.31-9.25c2.69-4.82,6.3-11.43,7.43-13.88,4.32-9.4,20.64-39.6,31.44-60.45,7.72-14.9,15.46-29.39,23.16-44.3s16.54-32.43,23.64-46c5.21-10,10.46-19.64,15.66-29.61,6.41-12.26,14.12-27.37,18.94-35.86,3.44-6.06,6.58-12,10-18,3-5.23,5.57-10.11,8.19-15.9,1.66-3.66,2.74-7,4.48-10.61.53-1.09,1.73-4.34,2.61-6.76a55.43,55.43,0,0,0,1.25-6.31c.2-1.22.54-3.36-.57-5.13A9.13,9.13,0,0,0,605.86,992.78Z" transform="translate(-53.03 -41.04)"/><path class="cls-1" d="M635,1006.58c2.66,1.32,5.28,2.58,8,3.82s5.49,2.51,8,3.57,5.74,2.53,6.89,2.82c1.56.4,2.54,1.1,4.09,1.54a4.14,4.14,0,0,1,2.36,1.52c1.21,1.69.76,4.13.56,5.41-.36,2.26-.12,3.88-.54,6.13-2.46,13.12-5.47,31.08-7.13,37-1.29,4.58-6.39,27-9.8,41.09-3.58,14.81-6.6,29.19-10.07,44-3.13,13.41-6.4,26.48-9.56,39.87-4.27,18.1-8.2,36-12.41,54.06-2.78,12-6,25.91-8.41,35.72-3.18,13.14-7.64,30.65-10.24,41.82-2.88,12.31-6.36,27.1-8.2,36.2-1.76,8.67-4.68,20.16-5.18,24.23-.16,1.24-4.09,16.26-5.35,21a14.21,14.21,0,0,1-2,4.38c-1.48,2-3.18,2.68-5,3.84a22.93,22.93,0,0,1-5.9,2.85,15.83,15.83,0,0,1-8.44-.88c-2.56-1-37.31-11.07-42.27-12.5-13.93-4-34.29-10.34-41-12.49a25.92,25.92,0,0,1-8.8-5.06,24.09,24.09,0,0,1-4.46-5.48,22.77,22.77,0,0,1-3.11-8.15c-.33-2.16.16-6.48,1.27-11,.22-.93.48-2,.69-2.69.95-3.31,2.05-7.41,2.77-9.78,2.88-9.44,8.7-21,10.16-23.65,6-11.06,10.76-21.67,16.59-32.87,5.6-10.74,12.94-27,19.56-41.17,8.08-17.34,18-38,27.41-57.24,10.8-22.13,21.75-43.13,32.54-65.27,10.24-21,22-45.34,30.52-61.61,3.31-6.34,7.58-14.13,9.64-18.5,5.08-10.8,12.09-23.15,15.47-30.44,1-2,5-7.32,6.66-9.46a6.79,6.79,0,0,1,2.64-2.17A5.67,5.67,0,0,1,635,1006.58Z" transform="translate(-53.03 -41.04)"/><path class="cls-1" d="M693.45,1025.13a5.82,5.82,0,0,0-3.84,0c-1.17.45-2.26,1.42-3.36,3.48a20.89,20.89,0,0,0-1.68,5c-.71,5.72-4.58,19.86-6,31.35-.69,5.59-3.72,20.48-5.75,31.35-.72,3.83-1.6,8.52-2.16,11.44-2.49,12.88-5.2,25.66-8.16,38.81-5.17,23-9.23,45-14.4,67.93-3.83,17-7.93,34.76-11.75,50.51-2.68,11-5.53,23.66-8.16,35.83-1.3,6-2.66,12.5-3.6,17.66-.88,4.81-2.3,13.16-3.36,19.16-.54,3-1.14,6.5-1.68,8.71-.7,2.87-1.21,5.58-1.92,8.46a31.55,31.55,0,0,0-.24,10.45,13.33,13.33,0,0,0,2.4,5.72,12.26,12.26,0,0,0,3.36,3,22.81,22.81,0,0,0,7.44,2.74c5.76.79,25.62,2.69,28.31,3,1.73.19,21.89,2.39,22.31,2.49,1.23.26,5.84,1.33,9.84-1a12,12,0,0,0,3.36-3,12.85,12.85,0,0,0,2.16-4.23,62,62,0,0,0,2.4-12.68c.25-2.3.6-5.09.72-6.72.17-2.43.24-4.63.24-7,0-2.81.33-10.83.48-16.42.65-25.49,3.84-97,6.47-146.3,1.15-21.35,2.57-49.18,3.6-63.2,1.22-16.39,2.37-33.43,3.12-48.51.26-5.2.46-11.13.72-15.43.25-4.14.11-8.55.48-11.69.41-3.47-.12-7.43-.24-11.7a7.33,7.33,0,0,0-.72-3,7.66,7.66,0,0,0-3.12-3,15.17,15.17,0,0,0-4.31-1.49l-6-.75C698.23,1025.86,694.41,1025.4,693.45,1025.13Z" transform="translate(-53.03 -41.04)"/><path class="cls-1" d="M740.16,1030.22a7.71,7.71,0,0,0-2.78,3.36c-2.94,5.92-3.64,20.08-4,25.6-.13,2-.34,3.73-.48,5.68-1.13,15.71-1.63,30.33-1.57,44.45s-.6,34.35-.79,52.2c-.2,19.39-.46,43.5-.71,58.08-.35,20.47-.84,41.47-1.45,62.66-.38,13-.91,33.49-1.23,41.19-.39,9.29-.81,30.56-1,41.55,0,2.12,0,4,0,6.15-.12,7.25-.6,11.89,1.18,17.51a26.84,26.84,0,0,0,3,6.42,18.22,18.22,0,0,0,8,7.07,15.94,15.94,0,0,0,2.57.78,19.84,19.84,0,0,0,5,.32c2-.15,4.46-.25,6.72-.32a42.64,42.64,0,0,0,7.43-.73,11.41,11.41,0,0,0,5-2.22,18,18,0,0,0,5.23-7.25c3.41-7.61,3.92-18,3.92-19.15,0-10.68-.12-23.37-.48-30.63-.13-2.69-.32-10-.48-15.15-.15-4.84-.31-10.32-.46-15.49-.52-18.16-1.91-42.83-3.11-64.75-1.38-24.94-3-50.63-4.77-76.17-.69-9.92-1.65-22.66-2.44-34.05-1-14.49-1.88-28.83-2.9-43.32-.25-3.56-.5-7.2-.72-10.65-.18-2.83-.46-7.36-.68-11-.46-7.74-1.05-15.61-1.77-22.69-.18-1.74-.45-3.55-.67-5.38a35.25,35.25,0,0,0-2.88-11,8.88,8.88,0,0,0-1.2-2.16,7.57,7.57,0,0,0-1.2-1.2,7.48,7.48,0,0,0-1-.24,9.07,9.07,0,0,0-2.16-.08c-.42,0-1.25,0-1.92,0a21,21,0,0,0-3,0A5.28,5.28,0,0,0,740.16,1030.22Z" transform="translate(-53.03 -41.04)"/><path class="cls-1" d="M778.24,1026.18a33.58,33.58,0,0,0-3.41.46,4.35,4.35,0,0,0-3.23,2.72,10.11,10.11,0,0,0-.43,5.32c.24,1.92-.15,3.35,0,5.28.28,3.47.39,7.17.73,10.11.58,5,1,9.76,1.56,14.72.5,4.31,1.07,9.42,1.48,12.9.84,7,1.72,14.09,2.64,21,1.09,8.28,4,27.45,6.09,41.3,1.62,10.9,3.22,22,4.62,32.53,1.86,13.9,3.62,28.22,5.23,42.49,1.34,11.87,2.59,23.64,3.74,35.42.56,5.78,1.37,14.62,2,22,1,10.74,2,22.34,2.84,32.1.46,5.53,1.34,14.53,1.46,17.45.79,19.84,5.18,43.64,7.44,50.59a10.86,10.86,0,0,0,1.42,2.85,12.73,12.73,0,0,0,4.77,4c2.61,1.33,5.92,2.2,11.09,2.77a92,92,0,0,0,17.76.1c7.54-.58,14.53-1.6,17.62-2.6,5.38-1.76,9-4,11.15-6.32a10.73,10.73,0,0,0,2.72-9.12c-.33-3.28.31-5.84-.31-9.11-2.64-13.81-8.29-42.37-15.52-66.7-1.32-4.43-5.35-20.6-7-26.81-2.9-11.18-7.8-30.43-11.7-45.71-6.55-25.68-14.9-58.12-19-76-3.6-15.69-7-31.4-10-46.4-1.72-8.63-4-19.62-4.88-25.26-.62-4-2-11.43-3-17.25-.35-2-1.67-7.7-2.64-11.76-.53-2.22-1.3-3.93-1.88-6.13a19.1,19.1,0,0,0-2-4.43,9.27,9.27,0,0,0-4.32-3.84,7.67,7.67,0,0,0-3.6-.24c-1.57.21-2.94.24-4.5.47-1.36.2-2.73.35-4.14.46Z" transform="translate(-53.03 -41.04)"/><path class="cls-1" d="M845.52,1006.56c-2.73,1.25-5.14,2.59-7.86,3.86-1.37.64-2.75,1.25-4,1.81-1.45.61-3,1.22-4.53,1.81-1.29.49-3,1.21-4.53,1.82a28.31,28.31,0,0,0-3.1,1.54,14.89,14.89,0,0,0-4,3.27,7.35,7.35,0,0,0-.76,1.07,9.33,9.33,0,0,0-.83,5.48c.3,3.08.85,7.23,1.17,8.62.49,2.16.75,4.45,1.2,6.79.64,3.35,1.33,6.73,2,9.86,3.12,14.21,7.45,28.75,11.29,42.54,2.12,7.58,5.21,21,8,31.86,3.29,13,8.69,33.16,12.79,49,3.68,14.18,7.27,28.27,10.84,42.56,1.74,7,8.64,35,10,40.7,2.16,8.77,4.89,19.82,6.5,26.24,3.5,14,7.09,27.72,10.56,41.76,3.55,14.39,8.6,33.52,10.59,42.3,1.39,6.15,7.72,26.41,10.12,33.91.24.76.82,2,1.2,3.06s.65,2.3,1.1,3.51a14.61,14.61,0,0,0,3.89,6.12,8.43,8.43,0,0,0,5.76,1.62c3.84-.12,6.78.44,10.51-.36,10.29-2.2,21.35-5.34,28.25-8.9,8.78-4.54,19.15-9.75,25-13.34,7.33-4.48,13.66-9.25,20.9-13.93,5.09-3.28,11.1-7.95,14.28-9.75,2.54-1.44,9.37-6.79,13.05-9.77a18.36,18.36,0,0,0,3.53-3.92,21.44,21.44,0,0,0,3-7.76c.9-4.23,1.69-8.08,1.47-10.4a24.58,24.58,0,0,0-3.27-9.59c-4.41-7.35-11.8-22.55-18.81-34.24-1.8-3-6-11.07-9.16-16.86-9.53-17.59-21.14-39-28.52-52.71-10.79-20-26-48.42-32.1-59.56-10.28-18.61-23.44-42-30.25-55-2.1-4-12.68-24.41-16.1-30.86-2.5-4.69-9.16-17-13.76-25.56q-7.26-13.48-14.53-27.15c-3.75-5.36-8.82-12.51-11.17-15.94-.76-1.12-2.68-3.16-4.15-4.93-3.47-4.14-6.31-5.3-7.34-4.74-.2.1-.68.43-1.06.65l-.47.25c-.79.41-1.74.95-2.38,1.29C848.44,1005.22,847,1005.87,845.52,1006.56Z" transform="translate(-53.03 -41.04)"/><path class="cls-1" d="M894.58,977.28a4.37,4.37,0,0,0-2.65,1.33c-.81.75-2.84,1.77-4.5,2.93s-3.14,2.13-4.5,2.92-2.74,2-3.71,2.4a2.67,2.67,0,0,0-1.06.8c-.9,1.21-.32,3.05,0,4a54.79,54.79,0,0,0,2.65,6.65c1.05,1.82,1.64,3.48,2.65,5.32,1.95,3.59,4.48,8.16,5.83,10.38,8.49,14,48.53,86,73.37,129.33,10.76,18.79,26.37,45.67,32.05,55.88,9.57,17.19,19.46,31.28,28.61,48.69,2.38,4.54,11.91,18.22,18.54,28.21a46,46,0,0,0,8.21,9.31c2,1.78,4.61,3.62,6.09,4.79.73.58,1.74,1.21,2.65,1.87a9.16,9.16,0,0,0,3.71,1.86,8.65,8.65,0,0,0,5.83-1.07c5.81-3.17,13.56-7.73,17.22-10.37s8.35-6.49,10.33-7.72a13.41,13.41,0,0,0,6.88-16,114.14,114.14,0,0,0-2.65-11.44,74.43,74.43,0,0,0-6.62-13.57,139.75,139.75,0,0,0-10.86-14.64c-2.17-2.39-22-27.18-33.64-41.51-7-8.53-19.12-24.76-28.87-37.78-12.28-16.39-23.54-32.48-36-48.7-12-15.54-23.89-29.89-35.76-45.5-8.12-10.69-19.53-26.47-27-35.93-3.46-4.36-6.84-8.31-9.54-12.5-3.43-5.33-7.64-10.15-10.07-14.37a24.87,24.87,0,0,0-4-4.26A4.56,4.56,0,0,0,894.58,977.28Z" transform="translate(-53.03 -41.04)"/><path class="cls-1" d="M911.15,963c1-.76,1.65-1.51,2.66-2.26.78-.57,2-1.59,3-2.54.69-.63,1.54-1.48,2.33-2.29,1.44-1.48,3.65-3.53,4-4a3.12,3.12,0,0,1,2.42-1.37,11.77,11.77,0,0,1,1.55-.2,7.14,7.14,0,0,1,1.77.24c.7.17,1.41.29,2,.44a28.16,28.16,0,0,1,10.2,6.64c2.49,2.56,4.84,4.07,7.31,6.64,4.66,4.88,12.1,12.47,15.51,15.94,2.44,2.47,7.14,6.88,10.86,10.4,4.91,4.66,9.71,9.3,14.62,13.94,6.52,6.17,14.63,13.66,22.11,20.52,11.52,10.56,24.65,22.51,34.4,31.19,10,9,20,17.3,30,26.27,7.32,6.54,37.13,34.27,39.87,36.8,9.32,8.6,20.73,18.93,27.83,25.58,8,7.47,17.11,16.43,23.22,21.53,5.32,4.45,12.26,10.66,18.52,16.43,3.9,3.6,6.31,7.07,10.17,10.71a48,48,0,0,1,8.06,11.17,17,17,0,0,1,1.69,6.44,19.83,19.83,0,0,1-.5,4.86,33,33,0,0,1-3,8.15,38.07,38.07,0,0,1-2.49,4.18,76.68,76.68,0,0,1-9.21,10.51c-5.18,4.66-12.12,11-14.58,13.54a138.4,138.4,0,0,1-11.2,9.6,28.19,28.19,0,0,1-6,3.24,8.09,8.09,0,0,1-1.79.54,6.73,6.73,0,0,1-.88.09,11.56,11.56,0,0,1-5.59-1.52,34.31,34.31,0,0,1-5.64-3.71,52.5,52.5,0,0,1-6.77-7.8c-1.76-2.68-3.56-4.84-5.31-7.52-1-1.51-7-9.93-8.63-12.16-11.11-15.6-24.39-33.09-37.5-49.82-6.51-8.32-22.63-28.56-34-42.92-12-15.13-28.62-36.23-35.73-44.93-12.1-14.81-24.2-28.62-36.34-43.38-11-13.36-23.21-28.36-32.49-38.72-5.17-5.76-10.22-11.51-15.38-17.28-2.13-2.39-4-4.72-6.2-7.08-4.42-4.79-7.7-9.82-11.62-14.12a24.76,24.76,0,0,1-3.9-7.57c-.49-1.5-.59-2.8,0-3.77A3.28,3.28,0,0,1,911.15,963Z" transform="translate(-53.03 -41.04)"/><path class="cls-1" d="M962.34,905.92a8.78,8.78,0,0,0-1.56,1.87c-1.94,3.13-3.77,6.3-5.71,9.11-.83,1.21-1.81,2.5-2.85,3.76a36.38,36.38,0,0,0-3.9,6.16,7.42,7.42,0,0,0-.78,2.68,8.21,8.21,0,0,0,1.56,5.09c1.86,2.87,4.76,7.22,6.23,8.58,4.74,4.37,12.57,12.74,19.73,19,2.35,2.07,6.5,6,9.86,9.11,5.28,4.84,19.9,18.41,22.32,20.64,26.67,24.62,61.43,52.68,94,79.85,14.93,12.48,31.79,26.67,43.86,37.25,22,19.26,43.31,38.8,64.37,55.48,5.68,4.5,11.63,8.64,16.09,12.86,6.39,6,14.07,11.36,19.2,15.81a18.9,18.9,0,0,0,7,3.75c3.58.88,8.25.58,14.28-2.68,11.23-6.08,15.9-18,21.28-29.21,1.67-3.49,5.65-10.53,8.56-16.08,2.21-4.21,11.24-21.69,13.24-25.19,2.76-4.83,3.85-8.92,6.75-13.66a26.27,26.27,0,0,0,3.89-11,30.53,30.53,0,0,0-1.3-9.65A41.64,41.64,0,0,0,1314,1079c-5.52-9-13.78-12.54-22.84-16.88-3.91-1.88-7.21-3.86-11.16-5.63-6.54-2.93-16.6-8-25.17-12.06-5.33-2.51-16.22-7.82-24.4-11.79-24.61-11.94-64.69-30.71-81.5-39.39-37.54-19.39-72.74-40.85-108.12-59.27-12.22-6.37-31-14.72-40.33-19.25-6.28-3-11.35-3.83-17.39-7.24A45,45,0,0,0,971.68,904C967.91,903.55,964.66,903.88,962.34,905.92Z" transform="translate(-53.03 -41.04)"/><path class="cls-1" d="M994.78,812.52a13.11,13.11,0,0,0-1.46,4.16c-.5,2-1.25,5.07-1.51,5.85a9.14,9.14,0,0,0-.67,3.49c.1,2,1,4,3.29,6.39,3.46,3.59,9.14,6,9.73,6.15,5.9,2,10.24,4.43,16.22,6.19,4,1.18,7.71,2.47,11.72,3.64,4.65,1.34,13.07,4,19.73,6,12.86,3.9,26.44,8,38.51,11.61,21,6.3,48.9,14.57,62.25,18.85,24.14,7.73,46.76,16,70.9,23.71,13.12,4.21,25.8,7.84,38.88,12.14,17,5.57,36.6,11.9,50.36,16.09,2.27.69,4.5,1.31,6.77,2,2.8.84,8.66,2.3,13.17,3.45a32.86,32.86,0,0,0,14.58,1,20.08,20.08,0,0,0,8.89-3.66,17.32,17.32,0,0,0,4.31-4.8,84.9,84.9,0,0,0,9.7-22.47c.39-1.39,8.19-22.71,9.66-26.73.74-2,1.39-4.8,2.17-7.36a24.49,24.49,0,0,0,1.19-8.08,19.89,19.89,0,0,0-2.91-9.85c-3-4.69-7.39-6.94-11.25-8.51a120.85,120.85,0,0,0-21.8-6c-4.72-.69-8.85-1.67-13.58-2.27-14.05-1.79-32.82-4.29-42-5-11-.79-33.33-4.23-51.05-6.64-45.35-6.17-99.22-13.45-134.84-17.69-15-1.78-31.82-3.46-47.9-5.33-6.26-.73-14.55-1.66-18.3-2.25-3.37-.52-6.54-.82-9.91-1.3-2.3-.33-11.1-1.42-18.3-.26-1.19.19-3.91.83-6,1.32a25.73,25.73,0,0,0-4.21,1.38A14.59,14.59,0,0,0,994.78,812.52Z" transform="translate(-53.03 -41.04)"/><path class="cls-1" d="M980,866.83a11.91,11.91,0,0,0,1.48,6.51,34.83,34.83,0,0,0,7.43,9.55c5.79,4.63,12.8,9.71,16,11.23,10.69,5,24.92,13.92,39.32,19.85,7.11,2.92,26.13,12.21,39.83,18.7,15.78,7.47,30.75,15.21,46.48,22.8,10.82,5.22,26.25,12.44,39.54,18.64,12.32,5.76,27.07,12.33,35.42,16.91,5.23,2.86,10.18,5,15.48,7.7a111.35,111.35,0,0,0,15.75,6.2,46.25,46.25,0,0,0,10.58,2.07,93.74,93.74,0,0,0,10.45-.44,37.5,37.5,0,0,0,9.92-2.41,10.65,10.65,0,0,0,4.09-2.93,12.69,12.69,0,0,0,2.65-6.32c.29-1.66,1.84-6.87,1.92-10.51.11-4.83-1.74-13.47-8-22.73a35.5,35.5,0,0,0-5.07-6.28c-5.13-4.66-13-8.3-14.11-8.68-7.76-2.75-24.42-9.55-36.94-13.46-4.07-1.28-14.59-5.27-22.22-8.09-16.36-6-33.47-12.87-48.45-18.53-16.93-6.39-33.34-11.89-50.28-18.26-11.6-4.36-24.65-9.24-34.42-12.66-8.88-3.11-17.6-6.05-26.5-8.93-2.46-.57-4.91-1.16-7.39-1.76-2-.49-4.63-1.12-6-1.48a209.56,209.56,0,0,0-31.62-5.27,3.52,3.52,0,0,0-2.17.51c-1.2.79-1.47,2.23-1.86,3.68C980.89,864.19,980.12,865,980,866.83Z" transform="translate(-53.03 -41.04)"/><path class="cls-1" d="M1001.59,769.26c-.89.88-.81,2.25-.76,3.86,0,1,0,2,0,3.09a6.9,6.9,0,0,0,0,3.85,7.7,7.7,0,0,0,3,3.86,13.91,13.91,0,0,0,6.81,2.31c1.7.24,3.07.66,4.78.86,5,.61,14.69,2.26,22.43,3,5.89.56,28.17,3,32.85,3.48,10.25,1.1,24.72,3.06,37.4,4.81,14.58,2,37.18,5.08,52.7,7.19,18,2.46,37.73,5,53.16,6.72,9.7,1.06,19.24,2,28.93,2.88,7.38.76,14.65,1.39,22.12,1.92,7.81.57,15.73.74,22.81,1.44,7.38.74,14.22,1.28,21.65,1.69,3.28.17,6.12-.08,9.41,0,7.49.17,14.68.62,20.59-3.91a19.74,19.74,0,0,0,3.78-3.86,21.74,21.74,0,0,0,3.78-9.25c1-5.4,1-10.05,1-15.15.06-6.9-.13-11.61-1.78-18a11.4,11.4,0,0,0-2.27-4.63c-1.74-2.11-3.76-2.87-6.78-4a58.72,58.72,0,0,0-6.07-2.18,32.77,32.77,0,0,0-9.22-.47c-5.07.54-9.13.06-14.21.47-8.9.71-42.41,1.76-54.56,2.26l-1.38,0c-15.62.64-39.8,0-60.48,0-23.39,0-51.4.65-77.86,1.54-2.67.09-43.33,2.2-56.69,2.32-4.68,0-17,.5-25.7.77-7.62.24-15.68,1.59-21.17,1.54-2.34,0-3.71.73-6,.77A3.24,3.24,0,0,0,1001.59,769.26Z" transform="translate(-53.03 -41.04)"/><path class="cls-1" d="M1003.5,707.82a19.24,19.24,0,0,0-4.11,4.48,16.19,16.19,0,0,0-2.17,4.41,12.56,12.56,0,0,0,0,5c.2,1.33.31,2.57.52,3.91s.4,2.82.51,3.9c.23,2.33.76,8.39,1.53,12.28a5.84,5.84,0,0,0,1.26,2.75c1.76,2,4.67,1.86,5.75,1.79,17.71-1.09,45.45-2.56,52.35-3.15,3.24-.27,7.75-.34,11.77-.56,6.89-.38,13.59-.83,20.47-1.39,12.72-1,36.71-2.65,55.27-3.91,15.53-1.05,39.62-2.46,59.61-3.62,18.38-1.07,40.82-2.37,54.76-3.35,9.13-.64,21.16-1.62,27.12-2,10.2-.58,23.48-1.54,32.24-2.24,2.8-.22,5.38-.6,8.18-.83,1.43-.12,3.85-.56,5.89-.84,4.31-.59,7.8-1.08,10.27-4.15a19.93,19.93,0,0,0,2.46-6.28,34.61,34.61,0,0,0,.82-6.27,55.34,55.34,0,0,0,0-5.9c-.43-7.48-2.1-19-2.56-23.71-1.35-14,.33-22.25-5.67-29.56a38.76,38.76,0,0,0-6.58-5.38c-4.27-2.9-8.92-5.45-11.51-6.27-6.5-2.08-11.67-1.15-18.91,0-3.1.49-6.32.8-9,1.32-9.54,1.85-19.83,4-27.89,5.86-5.27,1.24-10.45,2.34-15.72,3.57-24.33,5.68-68,16.06-81.77,19.3-29.37,6.91-65.26,15.31-87,19.81-8.15,1.69-26.23,6-39.66,9.21-7.76,1.84-15.64,4.35-22.51,6.13-4.28,1.11-7.69,2.88-11.62,3.82A14.77,14.77,0,0,0,1003.5,707.82Z" transform="translate(-53.03 -41.04)"/><path class="cls-1" d="M980.48,666.49c-.84-1.82-1.65-3.87-2.39-5.26-1-1.87-1.32-3.42-2.38-5.25a5.62,5.62,0,0,1-.82-3,5,5,0,0,1,.71-2.29A17.36,17.36,0,0,1,982,644.2c4.7-2.65,7.62-5.91,12.76-8.48,8.54-4.27,15.23-9.06,23.64-13.66,6.59-3.61,14.94-8.4,22.51-12.81,9.91-5.78,24.31-14.9,36.77-22.69,14.5-9.07,30.45-18.82,42.79-25.84s25.64-14,38.58-21.58c7.38-4.31,14.61-8.64,22-13,4-2.36,9.49-5.55,12.06-7.07,7.42-4.4,16.71-10.11,22-13.28,10.42-6.25,22.86-12.88,34.56-19.62,8-4.62,20.33-12,27-15.69,10.28-5.6,21.92-11,33.18-16.9,5.09-2.64,10-4.91,15.13-7.53a186.23,186.23,0,0,1,22.43-9.54,70.94,70.94,0,0,1,15.13-3.33,33.89,33.89,0,0,1,7.59-.09,39.83,39.83,0,0,1,8,1.88,57.79,57.79,0,0,1,16.49,8.93c6.69,5.54,10,12.6,11.73,16.42,1.85,4.12,7.4,14.55,10.07,22.24,10.48,30.24,17.49,61.95,19.15,80.8a14.83,14.83,0,0,1-1.89,9.42c-2.4,3.8-6.32,5.25-8,5.89-6,2.25-12.18,5.13-16.31,5.89-7,1.31-12.56,3.33-19.62,4.48-9.21,1.49-38.81,8.74-59.52,13.64-35.85,8.48-69.27,18.32-105.06,27.08-21.81,5.34-43.23,10.24-65,15.68-17.51,4.38-35.45,9.08-52.16,13.16-14.73,3.6-36,8.69-43.85,10.72-9.19,2.36-30.8,7.41-34.77,9-6.75,2.75-12.69,3-19.65,4.94-3.44.95-12.84.74-17.47.35a6.51,6.51,0,0,1-3.83-1.44,6.15,6.15,0,0,1-1.56-2.24c-.47-1-1.6-3.48-2.39-5.25C983.07,672,981.77,669.29,980.48,666.49Z" transform="translate(-53.03 -41.04)"/><path class="cls-1" d="M949.1,606.64a3.44,3.44,0,0,0-.77,2.31c.13,1.34,1.31,2.12,2.32,3.09.44.42,1.46,1.93,2.31,3.08,2,2.76,4.3,5.74,4.63,6.94a8.72,8.72,0,0,0,1.54,3.09,4.16,4.16,0,0,0,2.31,1.54,4.38,4.38,0,0,0,3.09-.77c1.86-1.16,4.59-2,6.94-3.86,8.1-6.55,36.45-21.43,57.07-34.7,10.87-7,26.2-16.92,32.39-20.83,11-6.91,31.13-19,47-28.53,9.25-5.57,35.27-21.38,43.3-26.08,10-5.84,30.67-17.49,46.16-26.37,7-4,15.43-8.91,20.56-11.55,6.71-3.45,14.87-8.4,18.72-10.08,2.34-1,8.85-5.18,13.94-9.22a19.22,19.22,0,0,0,6.94-9.25c1.22-3.81.82-7.26,0-10.8-1.07-4.59-3.6-10.36-4.32-12.49a72.17,72.17,0,0,0-3.36-8.16,24.44,24.44,0,0,0-2.16-3.6,17.56,17.56,0,0,0-3.27-3.52c-2.76-1.91-5.54-1.81-8.49-2a66.56,66.56,0,0,1-6.72-1c-2.76-.5-4.72-1.09-7.16-.89-4.51.37-7.52,2.57-10.36,4.49-2.41,1.63-4.59,2.64-7,4.32-7.12,5-21.67,15.68-26.4,19.68-5.69,4.81-21.76,16.78-33.4,25.5-24.92,18.64-48.71,33.33-73.27,52.44-11.89,9.26-22.81,18.51-34.71,27.76-13.79,10.73-31.89,25.13-40.1,30.85-11.06,7.72-19.5,15.72-30.44,22.57-5.84,3.66-12,10.27-14.29,12.14A32.82,32.82,0,0,0,949.1,606.64Z" transform="translate(-53.03 -41.04)"/><path class="cls-1" d="M1153.49,334a45.88,45.88,0,0,1,10-6.35,21.4,21.4,0,0,1,9.46-2,15.71,15.71,0,0,1,6.22,1.26c4.38,2,6.71,6,7.59,7.47,2.56,4.26,7,11.3,10,15.47a107.66,107.66,0,0,1,9,14.54,11.9,11.9,0,0,1,1.44,7.07,9.29,9.29,0,0,1-3.91,5.87c-3.46,2.61-13.87,10.45-15.71,11.24-1.46.62-18.78,13.12-27.32,19.24-14.68,10.52-29.92,22.8-45.24,35.58-19.68,16.4-51.58,42-78,63.2-11.65,9.33-27.82,21.95-34.27,27.48-16.21,13.92-35.59,30.42-48.46,40.43-3.64,2.83-7,4.43-10.29,7.51-1.68,1.59-4.59,3-7.24,4.73-1.18.79-3.72,2.48-6,1.37-2-1-2.76-3.57-3-4.55a9.57,9.57,0,0,1,1.89-7.62c3.45-5,8.76-11.84,11.67-13.94s9.92-10.16,15.88-15.85c8.66-8.28,15.27-16.51,23.27-25.44,11.63-13,26.52-26.94,38.78-39.68,12.75-13.26,25.41-27.93,38.61-42.11s26.34-27.83,39.48-42.05c9.17-9.93,19.42-21.17,26.26-29.39,4.33-5.2,10.6-12.22,12.68-15C1140.11,347.39,1147,340.17,1153.49,334Z" transform="translate(-53.03 -41.04)"/><path class="cls-1" d="M1199.59,141.81c-3.2-1.66-7.88-2.5-15-.43-9.22,2.68-15.2,9.6-17.21,12-5.25,6.21-10.33,10.41-15.36,16.8s-10.23,11.84-15.39,18.27c-12.26,15.24-21.8,30-31.35,45-13.36,21-29.64,40.23-45.18,62-12.68,17.78-25.59,36.36-36.48,52.8-15.36,23.19-29.21,45.93-44.45,69.2-4.64,7.08-9.27,14.07-13.95,21-4.36,6.5-8.76,13.19-12.88,19-2.53,3.55-6.17,8.44-9.36,12.72-2.46,3.3-8.82,11.92-13,17.52-6.54,8.84-12.61,18.12-18.72,25.92-4.2,5.36-7,10.82-10.56,16.08a31.86,31.86,0,0,0-4.8,10.32c-1.08,4.64.71,6.81-.83,11.3a6.56,6.56,0,0,0-.37,4.54c.64,1.74,2.06,2.23,4.08,3.6,2.54,1.72,3.54,3.66,5.76,3.84,2.6.21,4.68-1.54,5.78-2.56,5.7-5.24,32.79-31,39-39.45,6.5-8.82,20.24-20.79,31.66-32.72,16.52-17.26,34.57-36.55,51.92-55.33,25.17-27.25,55-61.05,73.72-80.42,21.15-21.84,62.74-64.77,66.48-67.44,13-9.26,26.52-24.27,37.49-40.79a52.17,52.17,0,0,0,7.86-18.2,58.25,58.25,0,0,0,1-14c-.55-9.85-3.82-35.62-10.32-56.88C1208,151.83,1205.81,145,1199.59,141.81Z" transform="translate(-53.03 -41.04)"/><path class="cls-1" d="M1043.19,190.72c-7.83-7.36-18.63-20.32-25.06-33.07-1.58-3.13-6.32-13-14.1-13.84a13.4,13.4,0,0,0-7,1.54,16.59,16.59,0,0,0-6.41,5.24c-.22.3-.43.6-.64.91a94.06,94.06,0,0,0-14.88,22.3c-3.52,7.38-5.11,13.38-7,20.76-1.88,7.11-5.25,16.53-7.84,25.38-7.48,25.58-24.64,71.42-38.55,109.2-8,21.6-16.78,45.18-24.11,63.06-3.28,8-7.52,18-11.23,27.15-5.09,12.49-11.15,27.43-14.87,37.1-2.16,5.62-4.38,11.21-6.58,16.51-2.3,5.53-4.64,11-7.07,16.51-1.24,2.82-2.75,6.37-4.11,9.62-1.45,3.45-2.36,6.58-3.92,10s-1.89,6.38-3.13,10c-.45,1.31-1.63,4.61,0,6.92a5.26,5.26,0,0,0,2.38,1.76c1.83.74,3.06,1.64,4.88,2.39a41.32,41.32,0,0,1,4.87,2.39c.91.52,1.88,1.05,2.69,1.44a6.63,6.63,0,0,0,1.21.48,7.19,7.19,0,0,0,2.44.24,4.17,4.17,0,0,0,1.33-.4,6,6,0,0,0,2.13-2.15,59.85,59.85,0,0,0,6.27-8.46c3.08-5.23,6.31-9.37,9.4-14.61,2.56-4.36,12.54-20,16.44-26.14,5.69-9,13.92-21.43,21.15-32.3,10.36-15.57,24.56-36.64,30.55-46.14,11.69-18.53,21-36.19,32.9-54.6,6.82-10.58,17.19-25.62,26.33-38.71,5.54-7.95,12.94-18.84,16.08-22.73,12.4-15.39,24.22-30.49,32-43.91a59.8,59.8,0,0,0,5.48-13.85,23,23,0,0,0,.79-9.22,24.77,24.77,0,0,0-6.27-13.08C1054.05,201.85,1047.65,194.9,1043.19,190.72Z" transform="translate(-53.03 -41.04)"/><path class="cls-1" d="M864.43,180.91a13.15,13.15,0,0,0-6.68,0,12,12,0,0,0-4.42,2.21,11.62,11.62,0,0,0-1.82,1.92c-1,1.34-2.31,3-2.86,3.84a29.93,29.93,0,0,0-3.43,9.77c-1.24,8.57-9.69,46.86-12.17,72.58-.89,9.33-3.66,27-6,41.29-2.19,13.47-4.74,26.4-7,39.85-2.38,14.12-4.38,27.9-6.76,42-1.92,11.38-4.12,24.11-6,33.61s-4.18,20.88-6.38,31.42c-1.18,5.69-2.2,11.26-3.34,17-1.35,6.82-2.44,15-3.34,20.06-.5,2.83-.21,5-.83,7.71a9,9,0,0,0,0,3.86,6.63,6.63,0,0,0,1.67,3.09c1.8,1.79,4,1.6,7.52,2.31,2.19.45,3.63,1.2,5.84,1.54a17.62,17.62,0,0,0,6.69,0c3.56-1,5.77-3.53,7.77-6.54a54.31,54.31,0,0,0,4.42-7.92c2.55-7.12,8.86-19.43,12.22-30.73,1.71-5.72,8.13-21.86,12.35-33.5,8.6-23.69,17.8-45.79,26.39-69.49,5.76-15.89,11.22-31.64,16.22-47,5.1-15.66,13.91-44.53,20-62.49,3.35-9.77,7.5-23.28,9.19-26.23a43.82,43.82,0,0,0,4.18-11.58,25.65,25.65,0,0,0-.83-12.34,18,18,0,0,0-3.35-6.17c-3.44-3.8-8.21-4.94-10-5.4-7.62-1.94-23.58-7-35.93-10.8" transform="translate(-53.03 -41.04)"/><path class="cls-1" d="M746.66,127a19.56,19.56,0,0,0-2.91,7.78c-1.22,7.32-1.73,15.07-1.09,20.08,1,7.61.4,13.94,1.26,21.57,1.24,10.88,2.24,38.7,3.12,59.4.64,15.05,1.19,30.68,1.49,44.61.2,8.87.35,20.25.46,30.48.11,9.94.13,20.76.22,29.71.14,14.74.75,37.3,1.28,56.29.42,14.72,1.09,35.83,1.22,43.81.17,10.86.39,25.6.52,32.52,0,2.77.13,6.31.19,9.48.05,2.19.09,5.25.15,6.48.09,1.92.15,3.71.15,5.63v.1c0,.83.12,5.36,2.51,8.33a7.65,7.65,0,0,0,1.58,1.5,10.13,10.13,0,0,0,3.89,1.46,11.2,11.2,0,0,0,4.62-.11,8.27,8.27,0,0,0,3.79-3.17,15.86,15.86,0,0,0,2.19-5.45c.77-5,7.82-34.7,9.56-54.22.41-4.53,1.66-14.28,2.59-21.66,1.36-10.68,3.42-24.58,5.33-37.15,2.31-15.14,5.14-33.77,6.71-45.08,1.35-9.71,3.16-24.28,4.69-36.6,2.9-23.48,5.61-46.8,8.48-70.29,1.2-9.82,2.45-21.07,3.59-31.77.81-7.56,1.53-15.05,2.14-22.37.39-4.72.52-10,1-13.59.73-5.36,3.07-20.21,1.59-31.66-.34-2.66-1.11-6.32-4.06-9.17-4.56-4.39-11.4-3.76-16.28-3.48-1.09.06-14.07-.21-21.61-.28-4.17,0-7.64.56-11.56.26-3.45-.26-8-.9-12.3,1.83A15.51,15.51,0,0,0,746.66,127Z" transform="translate(-53.03 -41.04)"/><path class="cls-1" d="M705.14,506.27c-1.42.2-7.39,1.05-9.77,1.65a4.93,4.93,0,0,1-2.45,0c-2-.58-3-2.5-3.59-3.74-2-4.25-5-11.35-5.37-14.41-.81-6.54-3-10.81-4.07-17.32-3.2-19.33-13.29-66.72-19.55-101.46-4.27-23.72-17.43-79.71-26.88-121.26-3.21-14.15-8.68-38.47-13-57.74-2.57-11.38-5.52-26.47-7.33-33-4.54-16.32-11.14-52-13.31-65.77a35.66,35.66,0,0,1,.81-15.67,35.51,35.51,0,0,1,4.88-9.91,34.93,34.93,0,0,1,9.77-9.9c5.58-3.61,12.34-4.67,14.66-5,6.28-.77,20.31-4.31,31.74-7.43,8.4-2.28,15.77-2.67,24.42-4.12a19.75,19.75,0,0,1,5.7,0,15.56,15.56,0,0,1,7.33,3.3A16.71,16.71,0,0,1,704,52a58.45,58.45,0,0,1,2.59,9.48c.41,2.57.95,5,1.27,7.45.61,4.6,1.42,10,1.84,13.61,1,8.72,2.15,18.85,2.72,25.66.92,11,1.38,23.88,1.78,36.45.33,10.46.84,20.68,1.2,31.13,1.39,40.28,3.32,95.16,4.07,120.48.53,18,1.12,38.83,1.63,53.64s1.3,35.49,2,53.29c.28,7.16.54,14.29.82,21.45.29,7.48.51,15.79.81,22.27.38,8.16-.28,28.39-.81,43.72-.1,2.87-.91,5.67-1.17,7.81a10.74,10.74,0,0,1-1.28,3.74,6.83,6.83,0,0,1-2.44,2.47,7.36,7.36,0,0,1-3.26.83C713.33,505.48,708.11,505.87,705.14,506.27Z" transform="translate(-53.03 -41.04)"/><path class="cls-1" d="M623.64,519.49c1,1.54,2.8,4.27,6.17,5.39a11.61,11.61,0,0,0,7.15-.24,63.91,63.91,0,0,0,8.16-3.12c1.42-.63,4.3-1.62,6.72-2.4l7.44-2.4a13.23,13.23,0,0,0,6.24-2.64,11.73,11.73,0,0,0,2.08-2.31,12,12,0,0,0,1.55-3.08c1.29-4,.08-8.94,0-9.26-.74-2.74-.69-5-1.44-7.7-2.21-8-5.38-24.52-9.15-37.41-2.67-9.13-10.49-39.73-14.16-53.76-4.81-18.37-9.49-36.73-13.92-54.72-3.27-13.28-6.29-26.33-9.6-39.6-4.92-19.68-11.53-44.2-17.76-66.72-5.41-19.58-14.09-46.45-16.56-56.4-.31-1.26-1.26-3.91-1.92-6a22.25,22.25,0,0,0-5-9.32,21.24,21.24,0,0,0-8.48-5.4,44.31,44.31,0,0,0-17-2.31,105.7,105.7,0,0,0-20.05,3.85c-9.19,3.26-20.23,7-26.22,8.49-5.6,1.39-13.85,3.44-17,3.85-2.28.3-8.62,1.34-13.88,4.63a30.36,30.36,0,0,0-7.71,6.94,27,27,0,0,0-4.63,8.48,23.49,23.49,0,0,0-.77,9.26c.56,5.16,2.54,8.44,4.63,12.34,1.48,2.78,2.47,5.35,3.93,8.15,3.29,6.29,7.21,13.75,9.84,18.48,2.09,3.76,4.45,8,6.28,11.16,6.79,11.84,15.52,28.34,23.14,43.19s14.12,29.13,21.59,44c6.35,12.62,17.43,33.2,26.22,50.13,6.36,12.24,14,26.93,18.51,36.25,7.19,14.77,13.63,29.2,20.82,44,3.26,6.69,7.31,14.71,11.12,22.15,1.75,3.41,3.53,6.67,5.28,10.08,1.34,2.62,2.76,4.81,4.08,7.44C620,514,622.12,517.14,623.64,519.49Z" transform="translate(-53.03 -41.04)"/><path class="cls-1" d="M341.28,154.56a48.45,48.45,0,0,0,2.16,15.6c1.84,5.64,4.17,8.77,7.19,13.83,2.48,4.17,3.73,8.18,6.25,12.33,6.07,10,14,23.37,18,29.76s7.31,12.48,11.22,18.84c6.8,11.06,16.8,25.37,25.46,38.57,7.31,11.15,15.34,23.85,21.59,33.16,7.93,11.8,15.93,22.94,23.91,34.7,5,7.38,17.33,26.33,22.36,33.94,6.46,9.76,20.46,30.22,30.85,45.5,10.94,16.08,25.69,37.63,32.39,47.82,5.92,9,19.89,29.86,26.23,39.33,3.23,4.84,6.54,9.37,9.75,14.14.85,1.26,1.72,2.35,2.59,3.6a38.41,38.41,0,0,0,7.71,8.49c1.94,1.46,3.92,2.58,6.17,2.31a7,7,0,0,0,3-1.2,17.39,17.39,0,0,0,4.08-3.12c2.08-3.33-.08-8-1.44-11s-2.21-5.54-3.6-8.4c-.69-1.43-2.37-5.51-3.6-8.4-1.37-3.2-3.43-8.08-4.08-9.6-5.63-13.21-12.11-25.22-19-38.45-2.47-4.73-5.65-11.42-8.59-17.23-7.38-14.57-14.94-29.19-22.26-42.93-15.23-28.58-33.41-62.68-45.5-85.61-12-22.73-23.42-45.17-35.48-67.86-10.46-19.7-23.14-43.63-34.7-65.56-7.12-13.5-13.8-26.66-20.22-40-3.65-7.56-7.29-15.24-10.63-22.51-3.86-8.38-8.27-18-11.57-24.68-1.42-2.88-3.24-6.44-4.2-8.49-2.67-5.72-6.65-13-7.68-15.84A34,34,0,0,0,363,66c-2.19-2-3.91-3.07-5.37-2.63S355.36,65.69,355,67a64.44,64.44,0,0,0-2.16,11.52c-.1,1.49-.8,4.8-1.2,7.44-1.5,9.87-3.28,20.88-5,31.44-1,6.11-2.19,14.53-2.88,17.76A97.87,97.87,0,0,0,341.28,154.56Z" transform="translate(-53.03 -41.04)"/><path class="cls-1" d="M337.28,273.25c2.93-1.35,9.31-4.49,15.8-6a14.78,14.78,0,0,1,8.65.14c3.07,1.08,4.67,3,6.76,5s4.09,3,6.3,4.91a81.34,81.34,0,0,1,12.83,15.08c5,7.81,12.2,17.25,17.77,27.14,4.33,7.68,18.53,27.93,28.83,42.95,14.94,21.8,38,53.43,58,80.68,8.29,11.29,18.56,25.29,24.67,33.17,8.34,10.74,16.36,21.41,24.68,32.16,6.45,8.33,10.19,15.91,16.78,24.13,2.88,3.59,8.26,13.65,10.86,19.1,1.17,2.45,1.56,5.62,2,7a5.19,5.19,0,0,1,0,3,5.51,5.51,0,0,1-2.15,2.77c-1,.75-1.78,1.5-2.78,2.25-.71.53-2.18,1.93-3.36,3.07s-2.74,2.46-3.69,3.44a8,8,0,0,1-3.81,2.54,8.37,8.37,0,0,1-5.92-1,53.06,53.06,0,0,1-8.08-4.66,104,104,0,0,1-12.65-12.42c-.82-1-1.59-1.93-2.4-2.9-2.23-2.66-4.62-5.4-7.07-8.14-4.63-5.17-10.57-11.8-13.82-15.32-9.31-10.08-21.83-23.26-33-35C458.44,481.62,446.06,467,432,452.17c-10.81-11.43-35.27-36-53.3-54.28-12.17-12.35-28.08-29.17-35.54-36.19-8.92-8.4-15.81-16.65-24.67-25.13-5.21-5-8.49-10.41-12.83-15.07a29.78,29.78,0,0,1-4.94-8,16.73,16.73,0,0,1-1-9,14.68,14.68,0,0,1,4-7,89.48,89.48,0,0,1,17.77-15.07C327.05,278.85,333.5,275,337.28,273.25Z" transform="translate(-53.03 -41.04)"/><path class="cls-1" d="M259.48,394.8a12.48,12.48,0,0,0-2.35,5.71,13.41,13.41,0,0,0,1.77,8.06c3.09,5.88,9.23,12.06,10,12.77,3.06,2.74,5.25,5.41,8.32,8.14,6,5.36,12.15,11.35,17.42,15.7,9.37,7.73,18.11,12.87,28.12,19.75,8.75,6,17.86,13.57,27.32,20.58,13.37,9.9,26.35,18.55,39.72,28.45,10.46,7.76,20.58,15.81,30.63,22.95,6,4.29,22.35,15.21,33.75,23,5.78,3.93,11.52,7.86,17.29,11.83,6.37,4.39,14.11,9.72,18.82,13.09s12.24,8.59,13.66,9.77c1.2,1,9.53,6.51,14.06,9.48a33.7,33.7,0,0,0,8.22,3.09,6.3,6.3,0,0,0,4.09-.06c1.5-.62,1.95-1.7,3.21-3.29.62-.79,3-2.62,4-4.93a8.9,8.9,0,0,0,.76-3.24c.06-3.14-1.84-5.3-4-8.05-.82-1-1.44-2-2.29-3-3.66-4.33-13.23-15.42-16.27-18.49-8.52-8.6-24-25.53-35.77-36.61-12.54-11.82-27.66-26.33-41.54-39.75-18.78-18.17-35.94-36.08-54.86-54.1-9.65-9.18-23.81-21.21-33.22-31-8.72-9.06-20.15-19-25.82-25a72.32,72.32,0,0,0-8.93-7.56,25.8,25.8,0,0,0-2.61-1.64c-2.87-1.56-6-1.92-9.86-3.07a14.89,14.89,0,0,0-7.36-.68,14.16,14.16,0,0,0-5.68,2.52c-4.28,3.09-11.26,9.37-15.32,12.39C269.93,385.22,263.22,389.52,259.48,394.8Z" transform="translate(-53.03 -41.04)"/><path class="cls-1" d="M77,553.66c-2.78-1.23-8.64-5-13.49-8.41-3.51-2.48-7.43-5.59-9.39-10.86a19.21,19.21,0,0,1-1-8.65c1.22-13,5.46-25.48,12.46-41.22,1.52-3.42,4.26-10.62,6.39-16.27,7.66-20.33,16.68-42.1,23.77-54.44a64.32,64.32,0,0,1,5.71-8.32,60,60,0,0,1,4-4.47,62.49,62.49,0,0,1,9.82-8.07,50.82,50.82,0,0,1,9-4.9,38.92,38.92,0,0,1,13.27-2.61c3.83-.05,11,1.11,18.41,4.39a67.51,67.51,0,0,1,8.42,4.57c6.74,4.44,17.43,10.5,26.15,16.85,10.8,7.86,21.39,15.11,32.12,23.05,10,7.42,28.91,20.34,43.93,30.7,21.26,14.68,52.47,36.07,63.35,43.75,18,12.67,37.91,26.71,53.21,36.83q19.66,13,38.8,24.5c6.34,3.79,15.62,9.16,23.6,13.75,7.59,4.37,15.14,8.67,22.75,13a173.16,173.16,0,0,0,15.16,8.39c7.69,3.75,17.86,10.7,23.63,15.32a17.05,17.05,0,0,1,4.27,5.44,8.7,8.7,0,0,1,.93,4.71,9.47,9.47,0,0,1-1.58,4c-1.72,2.45-2.44,4.63-4,7.17-.82,1.31-2.62,4.79-4,7.33-1.78,3.31-4.09,7.36-5,9.46-.79,1.83-4.73,11-5,11.82-.54,1.72-1.64,5.53-5,7.09-3,1.38-6.31-.34-12-2-1.25-.37-2.42-.63-3.67-1-4.72-1.4-11-3.25-13.92-4.19-5.13-1.66-14.45-4.39-21.78-6.69-14.34-4.48-38.22-11.38-57.8-17-20.46-5.93-44.08-12.9-61.14-17.78-16.24-4.64-34.44-9.9-47.75-14.08-19.86-6.26-38-13.11-57.84-19.42-22.85-7.25-49.51-15.72-66.19-20-10.58-2.74-19.57-6-30.24-8.41A207,207,0,0,1,77,553.66Z" transform="translate(-53.03 -41.04)"/><path class="cls-1" d="M123,761a22.8,22.8,0,0,1-6.42-1.43,21.65,21.65,0,0,1-8.93-7.55,36.77,36.77,0,0,1-6.73-17.62c-1.08-8.83.83-20.24,1.19-21.61,1.33-5.07,4.65-24.72,6.24-34.12,1-6.2,1.91-12.31,2.49-18,.78-7.63,6.06-31.08,8.66-41.49a19.31,19.31,0,0,1,4.63-8.57,15.44,15.44,0,0,1,6.32-4,17.39,17.39,0,0,1,8.78-.16c4.07.82,7.14.54,11.21,1.34a444.93,444.93,0,0,1,64.28,18.91c11.11,4.3,34,10.37,52.24,16,17.58,5.46,39.68,12.36,52.24,16,14.59,4.27,28.8,8,43.38,12.34,12,3.53,26.65,8,35.34,10.24,11.36,3,22.22,5.4,33.55,8.48,6.82,1.85,14.47,4.21,19.77,5.36,4.66,1,8.69,2.33,13.34,3.4,3.88.9,6.2,2.5,10,3.57a10.33,10.33,0,0,1,5.28,3.1,8.88,8.88,0,0,1,1.91,4.61c.85,6.08-2,14.68-3.19,20.82A103.51,103.51,0,0,0,477,744.65a29.59,29.59,0,0,1-1.07,5.45A9.85,9.85,0,0,1,473,755a10.56,10.56,0,0,1-5.22,2.16c-2,.42-3.48,1-5.47,1.44a118.92,118.92,0,0,1-15,2.07c-18.85,1-140.91.57-192.5,2.65-22.34.9-42.19,1.78-64.7,1.15-7.65-.21-16.37-.59-24.65-.83-6.4-.19-13.26-.71-18.64-.72C138.36,762.85,128.56,761.34,123,761Z" transform="translate(-53.03 -41.04)"/></svg>
